<svg width="32" height="32" viewBox="0 0 32 32" fill="none" xmlns="http://www.w3.org/2000/svg">
<path d="M13.6928 0.333374H18.5174C19.3195 0.333374 19.9648 0.978659 19.9648 1.78074V11.9123H25.2537C26.3271 11.9123 26.8639 13.2089 26.104 13.9688L16.9313 23.1475C16.479 23.5998 15.7372 23.5998 15.2849 23.1475L6.10017 13.9688C5.3403 13.2089 5.87703 11.9123 6.9505 11.9123H12.2455V1.78074C12.2455 0.978659 12.8907 0.333374 13.6928 0.333374ZM31.5437 23.0088V29.7632C31.5437 30.5653 30.8984 31.2106 30.0963 31.2106H2.11387C1.31179 31.2106 0.666504 30.5653 0.666504 29.7632V23.0088C0.666504 22.2067 1.31179 21.5614 2.11387 21.5614H10.9609L13.916 24.5165C15.1281 25.7287 17.0821 25.7287 18.2942 24.5165L21.2493 21.5614H30.0963C30.8984 21.5614 31.5437 22.2067 31.5437 23.0088ZM24.0656 28.3158C24.0656 27.6525 23.5229 27.1097 22.8595 27.1097C22.1961 27.1097 21.6533 27.6525 21.6533 28.3158C21.6533 28.9792 22.1961 29.522 22.8595 29.522C23.5229 29.522 24.0656 28.9792 24.0656 28.3158ZM27.9253 28.3158C27.9253 27.6525 27.3825 27.1097 26.7191 27.1097C26.0558 27.1097 25.513 27.6525 25.513 28.3158C25.513 28.9792 26.0558 29.522 26.7191 29.522C27.3825 29.522 27.9253 28.9792 27.9253 28.3158Z" fill="black"/>
</svg>
