<svg width="679" height="521" viewBox="0 0 679 521" fill="none" xmlns="http://www.w3.org/2000/svg">
<g clip-path="url(#clip0)">
<path d="M660.734 300.341C544.515 350.999 551.409 543.79 391.623 498.037C96.5854 413.555 164.246 319.73 118.212 319.73C49.5383 319.73 49.5516 450.933 21.5101 397.283C-29.1586 300.341 22.7358 177.433 44.3724 151.467C98.3194 86.7237 129.643 104.727 222.02 17.4796C268.04 -25.9844 354.807 11.6836 450.028 -23.0282C552.6 -60.42 737.77 266.763 660.734 300.341Z" fill="url(#paint0_linear)"/>
<path d="M218.482 81.071H217.097V155.213H218.482V81.071Z" fill="#3F3D56"/>
<path d="M218.482 177.283H217.097V242.52H218.482V177.283Z" fill="#3F3D56"/>
<path d="M328.249 252.914H214.677V254.3H328.249V252.914Z" fill="#3F3D56"/>
<path d="M170.699 271.623H169.314V330.521H170.699V271.623Z" fill="#3F3D56"/>
<path d="M344.519 340.914H181.779V342.3H344.519V340.914Z" fill="#3F3D56"/>
<path d="M480.25 33.9528H478.865V103.937H480.25V33.9528Z" fill="#3F3D56"/>
<path d="M468.478 115.024H366.655V116.41H468.478V115.024Z" fill="#3F3D56"/>
<path d="M356.291 126.111H354.906V219.654H356.291V126.111Z" fill="#3F3D56"/>
<path d="M217.79 178.079C215.461 178.079 213.185 177.388 211.249 176.094C209.313 174.8 207.804 172.96 206.913 170.807C206.022 168.655 205.789 166.287 206.243 164.002C206.698 161.716 207.819 159.618 209.465 157.97C211.112 156.323 213.209 155.201 215.493 154.746C217.777 154.292 220.144 154.525 222.295 155.417C224.446 156.308 226.285 157.818 227.578 159.755C228.872 161.692 229.562 163.97 229.562 166.3C229.559 169.423 228.317 172.417 226.11 174.625C223.903 176.833 220.911 178.076 217.79 178.079ZM217.79 155.906C215.735 155.906 213.727 156.515 212.019 157.658C210.31 158.8 208.979 160.423 208.193 162.322C207.407 164.221 207.201 166.311 207.602 168.327C208.003 170.343 208.992 172.195 210.445 173.649C211.897 175.103 213.748 176.093 215.763 176.494C217.778 176.895 219.867 176.689 221.765 175.902C223.663 175.115 225.285 173.783 226.427 172.074C227.568 170.365 228.177 168.355 228.177 166.3C228.174 163.544 227.079 160.902 225.132 158.954C223.184 157.005 220.544 155.909 217.79 155.906Z" fill="#3F3D56"/>
<path d="M170.699 353.387C168.371 353.387 166.095 352.696 164.159 351.402C162.223 350.107 160.714 348.268 159.823 346.115C158.932 343.963 158.698 341.594 159.153 339.309C159.607 337.024 160.728 334.925 162.375 333.278C164.021 331.631 166.119 330.509 168.402 330.054C170.686 329.6 173.053 329.833 175.204 330.724C177.356 331.616 179.194 333.126 180.488 335.063C181.781 337 182.472 339.278 182.472 341.607C182.468 344.73 181.227 347.725 179.02 349.933C176.813 352.141 173.82 353.383 170.699 353.387ZM170.699 331.214C168.645 331.214 166.636 331.823 164.928 332.965C163.22 334.107 161.888 335.731 161.102 337.63C160.316 339.529 160.11 341.619 160.511 343.635C160.912 345.651 161.901 347.503 163.354 348.957C164.807 350.41 166.658 351.4 168.673 351.801C170.688 352.202 172.776 351.997 174.674 351.21C176.572 350.423 178.195 349.091 179.336 347.382C180.478 345.673 181.087 343.663 181.087 341.607C181.084 338.852 179.988 336.21 178.041 334.261C176.094 332.313 173.453 331.217 170.699 331.214Z" fill="#3F3D56"/>
<path d="M218.482 264.694C224.601 264.694 229.562 259.73 229.562 253.607C229.562 247.484 224.601 242.521 218.482 242.521C212.363 242.521 207.402 247.484 207.402 253.607C207.402 259.73 212.363 264.694 218.482 264.694Z" fill="#6C63FF"/>
<path d="M619.445 165.607H504.488V166.993H619.445V165.607Z" fill="#3F3D56"/>
<path d="M494.101 177.283H492.716V242.52H494.101V177.283Z" fill="#3F3D56"/>
<path d="M481.293 252.914H379.495V254.3H481.293V252.914Z" fill="#3F3D56"/>
<path d="M647.145 259.15H551.579V260.536H647.145V259.15Z" fill="#3F3D56"/>
<path d="M541.884 271.623H540.499V330.521H541.884V271.623Z" fill="#3F3D56"/>
<path d="M529.418 340.914H366.679V342.3H529.418V340.914Z" fill="#3F3D56"/>
<path d="M356.291 287.56H354.906V330.521H356.291V287.56Z" fill="#3F3D56"/>
<path d="M493.408 177.386C499.527 177.386 504.488 172.423 504.488 166.3C504.488 160.177 499.527 155.213 493.408 155.213C487.288 155.213 482.328 160.177 482.328 166.3C482.328 172.423 487.288 177.386 493.408 177.386Z" fill="#6C63FF"/>
<path d="M479.558 126.803C477.229 126.803 474.953 126.113 473.017 124.818C471.081 123.524 469.572 121.684 468.681 119.532C467.79 117.379 467.557 115.011 468.011 112.726C468.466 110.441 469.587 108.342 471.233 106.694C472.88 105.047 474.978 103.925 477.261 103.471C479.545 103.016 481.912 103.249 484.063 104.141C486.214 105.033 488.053 106.542 489.347 108.479C490.64 110.417 491.331 112.694 491.331 115.024C491.327 118.147 490.086 121.141 487.879 123.349C485.672 125.558 482.679 126.8 479.558 126.803ZM479.558 104.63C477.503 104.63 475.495 105.24 473.787 106.382C472.079 107.524 470.747 109.147 469.961 111.046C469.175 112.946 468.969 115.035 469.37 117.052C469.771 119.068 470.76 120.92 472.213 122.373C473.666 123.827 475.516 124.817 477.531 125.218C479.546 125.619 481.635 125.413 483.533 124.626C485.431 123.84 487.053 122.508 488.195 120.798C489.336 119.089 489.946 117.08 489.946 115.024C489.942 112.268 488.847 109.626 486.9 107.678C484.952 105.729 482.312 104.633 479.558 104.63Z" fill="#3F3D56"/>
<path d="M355.599 126.803C353.27 126.803 350.994 126.113 349.058 124.818C347.122 123.524 345.613 121.684 344.722 119.532C343.831 117.379 343.598 115.011 344.052 112.726C344.507 110.441 345.628 108.342 347.274 106.694C348.921 105.047 351.018 103.925 353.302 103.471C355.586 103.016 357.953 103.249 360.104 104.141C362.255 105.033 364.094 106.542 365.387 108.479C366.681 110.417 367.371 112.694 367.371 115.024C367.368 118.147 366.127 121.141 363.92 123.349C361.712 125.558 358.72 126.8 355.599 126.803ZM355.599 104.63C353.544 104.63 351.536 105.24 349.828 106.382C348.12 107.524 346.788 109.147 346.002 111.046C345.216 112.946 345.01 115.035 345.411 117.052C345.812 119.068 346.801 120.92 348.254 122.373C349.706 123.827 351.557 124.817 353.572 125.218C355.587 125.619 357.676 125.413 359.574 124.626C361.472 123.84 363.094 122.508 364.236 120.798C365.377 119.089 365.986 117.08 365.986 115.024C365.983 112.268 364.888 109.626 362.941 107.678C360.993 105.729 358.353 104.633 355.599 104.63Z" fill="#3F3D56"/>
<path d="M540.499 272.316C538.17 272.316 535.894 271.625 533.958 270.331C532.022 269.036 530.513 267.196 529.622 265.044C528.731 262.892 528.498 260.523 528.952 258.238C529.406 255.953 530.528 253.854 532.174 252.207C533.821 250.559 535.918 249.437 538.202 248.983C540.486 248.528 542.853 248.762 545.004 249.653C547.155 250.545 548.994 252.055 550.287 253.992C551.581 255.929 552.271 258.206 552.271 260.536C552.268 263.659 551.026 266.653 548.819 268.862C546.612 271.07 543.62 272.312 540.499 272.316ZM540.499 250.142C538.444 250.142 536.436 250.752 534.728 251.894C533.019 253.036 531.688 254.659 530.902 256.559C530.115 258.458 529.91 260.548 530.311 262.564C530.711 264.58 531.701 266.432 533.153 267.886C534.606 269.339 536.457 270.329 538.472 270.73C540.487 271.131 542.576 270.925 544.474 270.139C546.372 269.352 547.994 268.02 549.136 266.311C550.277 264.601 550.886 262.592 550.886 260.536C550.883 257.781 549.788 255.139 547.84 253.19C545.893 251.242 543.253 250.145 540.499 250.142Z" fill="#3F3D56"/>
<path d="M540.498 352.694C546.618 352.694 551.578 347.73 551.578 341.607C551.578 335.484 546.618 330.521 540.498 330.521C534.379 330.521 529.418 335.484 529.418 341.607C529.418 347.73 534.379 352.694 540.498 352.694Z" fill="#6C63FF"/>
<path d="M355.599 353.387C353.27 353.387 350.994 352.696 349.058 351.402C347.122 350.107 345.613 348.268 344.722 346.115C343.831 343.963 343.598 341.594 344.052 339.309C344.507 337.024 345.628 334.925 347.274 333.278C348.921 331.631 351.018 330.509 353.302 330.054C355.586 329.6 357.953 329.833 360.104 330.724C362.255 331.616 364.094 333.126 365.387 335.063C366.681 337 367.371 339.278 367.371 341.607C367.368 344.73 366.127 347.725 363.92 349.933C361.712 352.141 358.72 353.383 355.599 353.387ZM355.599 331.214C353.544 331.214 351.536 331.823 349.828 332.965C348.12 334.107 346.788 335.731 346.002 337.63C345.216 339.529 345.01 341.619 345.411 343.635C345.812 345.651 346.801 347.503 348.254 348.957C349.706 350.41 351.557 351.4 353.572 351.801C355.587 352.202 357.676 351.997 359.574 351.21C361.472 350.423 363.094 349.091 364.236 347.382C365.377 345.673 365.986 343.663 365.986 341.607C365.983 338.852 364.888 336.21 362.941 334.261C360.993 332.313 358.353 331.217 355.599 331.214Z" fill="#3F3D56"/>
<path d="M492.716 265.387C490.387 265.387 488.111 264.696 486.175 263.401C484.239 262.107 482.73 260.267 481.839 258.115C480.948 255.962 480.715 253.594 481.169 251.309C481.623 249.024 482.745 246.925 484.391 245.278C486.037 243.63 488.135 242.508 490.419 242.054C492.702 241.599 495.07 241.833 497.221 242.724C499.372 243.616 501.211 245.125 502.504 247.063C503.798 249 504.488 251.277 504.488 253.607C504.485 256.73 503.243 259.724 501.036 261.933C498.829 264.141 495.837 265.383 492.716 265.387ZM492.716 243.213C490.661 243.213 488.653 243.823 486.944 244.965C485.236 246.107 483.905 247.73 483.119 249.629C482.332 251.529 482.127 253.618 482.527 255.635C482.928 257.651 483.918 259.503 485.37 260.956C486.823 262.41 488.674 263.4 490.689 263.801C492.704 264.202 494.793 263.996 496.691 263.21C498.589 262.423 500.211 261.091 501.353 259.381C502.494 257.672 503.103 255.663 503.103 253.607C503.1 250.851 502.005 248.209 500.057 246.261C498.11 244.312 495.47 243.216 492.716 243.213Z" fill="#3F3D56"/>
<path d="M170.699 236.977C167.96 236.977 165.282 237.79 163.004 239.313C160.727 240.835 158.951 243 157.903 245.532C156.855 248.064 156.581 250.851 157.115 253.539C157.649 256.227 158.969 258.697 160.906 260.635C162.842 262.573 165.31 263.893 167.997 264.428C170.684 264.962 173.468 264.688 175.999 263.639C178.53 262.59 180.693 260.814 182.215 258.535C183.737 256.256 184.549 253.576 184.549 250.835C184.538 247.163 183.076 243.645 180.481 241.048C177.886 238.451 174.369 236.988 170.699 236.977ZM170.699 241.135C171.521 241.135 172.324 241.378 173.007 241.835C173.691 242.292 174.223 242.941 174.538 243.701C174.852 244.461 174.935 245.297 174.774 246.103C174.614 246.91 174.218 247.651 173.637 248.232C173.056 248.813 172.316 249.209 171.51 249.37C170.704 249.53 169.868 249.448 169.109 249.133C168.35 248.819 167.701 248.286 167.244 247.602C166.788 246.918 166.544 246.114 166.544 245.292C166.548 244.191 166.987 243.135 167.765 242.356C168.543 241.578 169.598 241.138 170.699 241.135ZM170.699 261.149C169.058 261.142 167.443 260.734 165.995 259.96C164.547 259.187 163.309 258.072 162.389 256.712C162.456 253.94 167.929 252.415 170.699 252.415C173.469 252.415 178.943 253.94 179.009 256.712C178.088 258.071 176.85 259.185 175.402 259.959C173.954 260.732 172.34 261.14 170.699 261.149Z" fill="#3F3D56"/>
<path d="M218.482 47.8112C215.743 47.8112 213.065 48.6239 210.787 50.1467C208.51 51.6695 206.735 53.8338 205.686 56.3661C204.638 58.8984 204.364 61.6848 204.898 64.3731C205.433 67.0613 206.752 69.5307 208.689 71.4688C210.626 73.4069 213.093 74.7268 215.78 75.2615C218.467 75.7962 221.252 75.5218 223.782 74.4729C226.313 73.424 228.476 71.6477 229.998 69.3687C231.52 67.0897 232.332 64.4104 232.332 61.6695C232.322 57.9973 230.859 54.4786 228.264 51.882C225.669 49.2854 222.152 47.8219 218.482 47.8112ZM218.482 51.9686C219.304 51.9686 220.107 52.2125 220.791 52.6693C221.474 53.1261 222.006 53.7755 222.321 54.5351C222.635 55.2948 222.718 56.1308 222.557 56.9372C222.397 57.7437 222.001 58.4845 221.42 59.0659C220.839 59.6474 220.099 60.0433 219.293 60.2038C218.487 60.3642 217.651 60.2818 216.892 59.9672C216.133 59.6525 215.484 59.1196 215.027 58.4359C214.571 57.7522 214.327 56.9484 214.327 56.1261C214.331 55.0246 214.77 53.9693 215.548 53.1904C216.327 52.4115 217.381 51.9723 218.482 51.9686ZM218.482 71.9833C216.841 71.9758 215.226 71.5677 213.778 70.7944C212.33 70.0212 211.092 68.9061 210.172 67.5459C210.239 64.7743 215.712 63.2485 218.482 63.2485C221.252 63.2485 226.726 64.7743 226.792 67.5459C225.871 68.9051 224.633 70.0194 223.185 70.7925C221.738 71.5656 220.123 71.9743 218.482 71.9833Z" fill="#3F3D56"/>
<path d="M479.558 0C476.818 0 474.141 0.812779 471.863 2.33555C469.585 3.85832 467.81 6.02269 466.762 8.55497C465.714 11.0872 465.439 13.8737 465.974 16.5619C466.508 19.2502 467.827 21.7195 469.764 23.6576C471.701 25.5957 474.169 26.9156 476.856 27.4503C479.542 27.9851 482.327 27.7106 484.858 26.6617C487.389 25.6128 489.552 23.8366 491.074 21.5576C492.596 19.2786 493.408 16.5992 493.408 13.8583C493.397 10.1862 491.934 6.66749 489.339 4.07088C486.744 1.47427 483.228 0.0107488 479.558 0ZM479.558 4.15749C480.38 4.15749 481.183 4.40133 481.866 4.85816C482.549 5.31499 483.082 5.9643 483.396 6.72399C483.711 7.48367 483.793 8.3196 483.633 9.12608C483.473 9.93255 483.077 10.6733 482.496 11.2548C481.915 11.8362 481.174 12.2322 480.368 12.3926C479.562 12.553 478.727 12.4707 477.968 12.156C477.208 11.8413 476.559 11.3085 476.103 10.6248C475.646 9.94108 475.403 9.13726 475.403 8.31499C475.406 7.21348 475.845 6.15814 476.624 5.37926C477.402 4.60037 478.457 4.16117 479.558 4.15749ZM479.558 24.1721C477.916 24.1646 476.302 23.7565 474.853 22.9833C473.405 22.21 472.168 21.095 471.248 19.7348C471.314 16.9631 476.788 15.4374 479.558 15.4374C482.328 15.4374 487.801 16.9631 487.868 19.7348C486.947 21.0939 485.709 22.2082 484.261 22.9814C482.813 23.7545 481.199 24.1632 479.558 24.1721Z" fill="#3F3D56"/>
<path d="M638.835 151.749C636.095 151.749 633.417 152.561 631.14 154.084C628.862 155.607 627.087 157.771 626.039 160.304C624.99 162.836 624.716 165.622 625.251 168.31C625.785 170.999 627.104 173.468 629.041 175.406C630.978 177.344 633.446 178.664 636.133 179.199C638.819 179.734 641.604 179.459 644.135 178.41C646.666 177.361 648.829 175.585 650.351 173.306C651.872 171.027 652.685 168.348 652.685 165.607C652.674 161.935 651.211 158.416 648.616 155.819C646.021 153.223 642.505 151.759 638.835 151.749ZM638.835 155.906C639.656 155.906 640.46 156.15 641.143 156.607C641.826 157.064 642.359 157.713 642.673 158.473C642.988 159.232 643.07 160.068 642.91 160.875C642.749 161.681 642.354 162.422 641.773 163.003C641.191 163.585 640.451 163.981 639.645 164.141C638.839 164.302 638.004 164.219 637.244 163.905C636.485 163.59 635.836 163.057 635.38 162.373C634.923 161.69 634.68 160.886 634.68 160.064C634.683 158.962 635.122 157.907 635.901 157.128C636.679 156.349 637.734 155.91 638.835 155.906ZM638.835 175.921C637.193 175.913 635.578 175.505 634.13 174.732C632.682 173.959 631.444 172.844 630.524 171.483C630.591 168.712 636.065 167.186 638.835 167.186C641.605 167.186 647.078 168.712 647.145 171.483C646.224 172.842 644.986 173.957 643.538 174.73C642.09 175.503 640.476 175.912 638.835 175.921Z" fill="#3F3D56"/>
<path d="M665.15 245.292C662.411 245.292 659.733 246.105 657.455 247.628C655.178 249.15 653.402 251.315 652.354 253.847C651.306 256.379 651.032 259.166 651.566 261.854C652.1 264.542 653.419 267.012 655.356 268.95C657.293 270.888 659.761 272.208 662.448 272.743C665.135 273.277 667.919 273.003 670.45 271.954C672.981 270.905 675.144 269.129 676.666 266.85C678.188 264.571 679 261.891 679 259.15C678.989 255.478 677.527 251.96 674.932 249.363C672.337 246.766 668.82 245.303 665.15 245.292ZM665.15 249.45C665.972 249.45 666.775 249.693 667.458 250.15C668.142 250.607 668.674 251.256 668.989 252.016C669.303 252.776 669.385 253.612 669.225 254.418C669.065 255.225 668.669 255.965 668.088 256.547C667.507 257.128 666.767 257.524 665.961 257.685C665.155 257.845 664.319 257.763 663.56 257.448C662.801 257.133 662.152 256.601 661.695 255.917C661.239 255.233 660.995 254.429 660.995 253.607C660.999 252.506 661.438 251.45 662.216 250.671C662.994 249.892 664.049 249.453 665.15 249.45ZM665.15 269.464C663.509 269.457 661.894 269.049 660.446 268.275C658.998 267.502 657.76 266.387 656.84 265.027C656.906 262.255 662.38 260.729 665.15 260.729C667.92 260.729 673.393 262.255 673.46 265.027C672.539 266.386 671.301 267.5 669.853 268.273C668.405 269.047 666.791 269.455 665.15 269.464Z" fill="#3F3D56"/>
<path d="M105.261 508.111C103.291 526.041 -0.156578 524.536 0.000177972 508.11C1.97063 490.181 105.418 491.686 105.261 508.111Z" fill="#E6E6E6"/>
<path d="M71.8505 462.976L76.0443 472.067L83.7318 471.368L88.6244 455.283L80.9362 451.087L71.8505 462.976Z" fill="#FFB8B8"/>
<path d="M45.4576 483.914L45.2921 490.249L57.1735 490.948V483.256L45.4576 483.914Z" fill="#FFB8B8"/>
<path d="M49.4853 368.567L52.2809 424.513L45.2921 485.353L66.2592 488.151L79.5387 411.226L83.7319 358.776L49.4853 368.567Z" fill="#2F2E41"/>
<path d="M16.6368 348.287C16.6368 348.287 8.24986 403.533 25.7226 421.716C43.1954 439.898 66.9583 472.067 66.9583 472.067L83.7321 451.087L41.0986 405.631L49.4855 374.861L83.7321 358.777L78.1409 320.314L27.8193 319.615L16.6368 348.287Z" fill="#2F2E41"/>
<path d="M57.8725 220.311C66.3644 220.311 73.2485 213.423 73.2485 204.926C73.2485 196.429 66.3644 189.541 57.8725 189.541C49.3805 189.541 42.4965 196.429 42.4965 204.926C42.4965 213.423 49.3805 220.311 57.8725 220.311Z" fill="#FFB8B8"/>
<path d="M44.5932 208.423C44.5932 208.423 43.8942 230.102 40.3997 232.899C36.9051 235.696 52.9801 247.585 52.9801 247.585L63.4637 230.801V215.416L44.5932 208.423Z" fill="#FFB8B8"/>
<path d="M51.5822 237.794L43.0969 224.974L38.3026 231.5L31.3138 251.081L36.9052 327.307L69.7536 328.006L73.9474 240.591L63.4635 228.004L51.5822 237.794Z" fill="#D0CDE1"/>
<path d="M87.2266 242.689L92.8179 241.99C92.8179 241.99 94.2157 242.689 94.9146 247.585C95.6136 252.48 104 295.838 104 295.838L92.8179 348.986L80.2375 332.202L87.9256 302.831L80.2375 273.459L87.2266 242.689Z" fill="#2F2E41"/>
<path d="M15.9381 241.99H11.7443L1.26111 298.635L11.0456 342.693L20.83 326.608L18.0343 309.125L19.4325 293.74L24.3251 284.648L15.9381 241.99Z" fill="#2F2E41"/>
<path d="M78.1408 469.269C78.1408 469.269 73.9474 467.871 73.9474 470.668C73.9474 473.465 76.743 481.857 76.743 481.857C76.743 481.857 72.5496 507.732 78.8398 506.333C85.13 504.935 90.0223 493.046 90.7212 489.55C91.4202 486.053 94.9147 467.871 94.9147 467.871C94.9147 467.871 100.506 454.584 97.0114 453.884C93.5168 453.185 83.7321 450.388 83.7321 450.388C83.7321 450.388 89.3234 467.871 78.1408 469.269Z" fill="#2F2E41"/>
<path d="M57.8724 490.948C57.8724 490.948 46.6898 483.955 44.5931 489.55C43.2025 493.63 42.265 497.852 41.7974 502.138C41.7974 502.138 39.0018 511.229 50.1844 509.83C61.3669 508.431 59.9691 508.431 60.668 504.235C61.3669 500.039 57.8724 490.948 57.8724 490.948Z" fill="#2F2E41"/>
<path d="M48.7866 204.926L51.5823 204.227C51.5823 204.227 53.679 192.338 58.5714 193.737C63.4638 195.136 76.0441 196.534 76.0441 190.94C76.0441 185.345 64.1627 180.45 57.1736 181.149C50.1845 181.848 38.303 183.946 39.0019 194.436C39.7008 204.926 44.2107 215.13 44.2107 215.13L44.575 208.911L48.7866 204.926Z" fill="#2F2E41"/>
<path d="M63.4635 246.186L51.5822 237.794L63.4635 228.004L67.5888 232.956L63.4635 246.186Z" fill="#D0CDE1"/>
<path d="M41.0983 245.487L51.5821 237.794L43.1952 225.207L38.3026 231.5L41.0983 245.487Z" fill="#D0CDE1"/>
<path d="M92.1191 241.99L69.754 232.899L64.5121 229.053L48.7867 298.635L38.303 267.166L41.4481 226.955L12.4434 241.99L22.2281 289.544L23.626 307.726L19.4325 322.412C19.4325 322.412 4.75537 332.902 9.64773 344.091C14.5401 355.28 20.1314 355.979 20.1314 355.979C20.1314 355.979 43.8943 333.601 45.2921 328.007C46.69 322.412 48.7867 312.621 48.7867 312.621C48.7867 312.621 60.6682 357.378 74.6463 356.679C88.6245 355.979 88.6245 341.294 88.6245 341.294L85.13 325.909L79.5387 309.824L82.3344 283.25L92.1191 241.99Z" fill="#2F2E41"/>
<path d="M354.286 223.119L353.872 224.535V265.663L354.286 266.08L373.262 254.8L354.286 223.119Z" fill="#343434"/>
<path d="M353.872 223.119L335.174 254.796L353.872 266.08V223.119Z" fill="#8C8C8C"/>
<path d="M354.108 269.792L353.872 270.085V284.793L354.108 285.481L373.262 258.458L354.108 269.792Z" fill="#3C3C3B"/>
<path d="M353.872 285.481V269.789L335.174 258.458L353.872 285.481Z" fill="#8C8C8C"/>
<path d="M353.872 266.08L373.262 254.722L353.872 245.985V266.08Z" fill="#141414"/>
<path d="M335.174 254.719L353.872 266.08V245.985L335.174 254.719Z" fill="#393939"/>
</g>
<defs>
<linearGradient id="paint0_linear" x1="253.5" y1="-9" x2="508" y2="480.5" gradientUnits="userSpaceOnUse">
<stop stop-color="#E4FBFF"/>
<stop offset="0.0001" stop-color="white" stop-opacity="0"/>
<stop offset="1" stop-color="#A7DFFF"/>
</linearGradient>
<clipPath id="clip0">
<rect width="679" height="521" fill="white"/>
</clipPath>
</defs>
</svg>
