<svg width="432" height="400" viewBox="0 0 432 400" fill="none" xmlns="http://www.w3.org/2000/svg">
<g clip-path="url(#clip0)">
<path d="M213.973 400C332.147 400 427.946 393.585 427.946 385.672C427.946 377.759 332.147 371.344 213.973 371.344C95.799 371.344 0 377.759 0 385.672C0 393.585 95.799 400 213.973 400Z" fill="#3F3D56"/>
<path d="M217.559 229.26H210.387V233.439H217.559V229.26Z" fill="#3F3D56"/>
<path d="M231.904 229.26H224.732V233.439H231.904V229.26Z" fill="#3F3D56"/>
<path d="M246.248 229.26H239.076V233.439H246.248V229.26Z" fill="#3F3D56"/>
<path d="M260.593 229.26H253.421V233.439H260.593V229.26Z" fill="#3F3D56"/>
<path d="M274.938 229.26H267.765V233.439H274.938V229.26Z" fill="#3F3D56"/>
<path d="M289.282 229.26H282.11V233.439H289.282V229.26Z" fill="#3F3D56"/>
<path d="M303.627 229.26H296.454V233.439H303.627V229.26Z" fill="#3F3D56"/>
<path d="M317.971 229.26H310.799V233.439H317.971V229.26Z" fill="#3F3D56"/>
<path d="M332.316 229.26H325.144V233.439H332.316V229.26Z" fill="#3F3D56"/>
<path d="M346.66 229.26H339.488V233.439H346.66V229.26Z" fill="#3F3D56"/>
<path d="M361.005 229.26H353.833V233.439H361.005V229.26Z" fill="#3F3D56"/>
<path d="M377.441 231.946C377.441 254.746 368.374 276.612 352.233 292.734C336.092 308.856 314.201 317.913 291.374 317.913C268.548 317.913 246.656 308.856 230.515 292.734C214.374 276.612 205.307 254.746 205.307 231.946H377.441Z" fill="#3F3D56"/>
<path d="M373.282 232.495L318.533 69.492C329.248 65.8935 340.568 64.4402 351.846 65.2151C363.124 65.9899 374.138 68.9779 384.259 74.008C394.38 79.0381 403.409 86.0117 410.829 94.5299C418.249 103.048 423.916 112.944 427.504 123.651C428.084 125.377 428.61 127.114 429.076 128.851C434.711 149.975 432.079 172.449 421.714 191.702C411.35 210.956 394.031 225.543 373.282 232.495Z" fill="#3F3D56"/>
<path d="M375.35 245.378C381.291 245.378 386.108 240.567 386.108 234.633C386.108 228.698 381.291 223.887 375.35 223.887C369.408 223.887 364.591 228.698 364.591 234.633C364.591 240.567 369.408 245.378 375.35 245.378Z" fill="#3F3D56"/>
<path d="M265.973 254.333C265.18 254.333 264.42 254.648 263.859 255.208C263.299 255.768 262.984 256.527 262.984 257.318C262.984 258.11 263.299 258.869 263.859 259.429C264.42 259.989 265.18 260.303 265.973 260.303H317.374C318.167 260.303 318.927 259.989 319.487 259.429C320.048 258.869 320.362 258.11 320.362 257.318C320.362 256.527 320.048 255.768 319.487 255.208C318.927 254.648 318.167 254.333 317.374 254.333H265.973Z" fill="#6C63FF"/>
<path d="M362.798 387.463L352.096 387.858L313.539 305.034L323.294 300.504L362.798 387.463Z" fill="#3F3D56"/>
<path d="M219.95 387.463L230.652 387.858L269.209 305.034L259.454 300.504L219.95 387.463Z" fill="#3F3D56"/>
<path d="M335.902 339.704H247.444V345.674H335.902V339.704Z" fill="#3F3D56"/>
<path d="M320.721 66.4488C320.301 66.449 319.887 66.5476 319.511 66.7366C319.136 66.9256 318.81 67.1999 318.56 67.5373C318.31 67.8748 318.143 68.266 318.071 68.6798C318 69.0935 318.027 69.5182 318.15 69.9197L320.417 77.3428C320.626 78.0237 321.097 78.594 321.726 78.9284C322.356 79.2627 323.092 79.3338 323.774 79.126C324.456 78.9182 325.027 78.4486 325.363 77.8202C325.698 77.1918 325.77 76.4561 325.563 75.7748L323.295 68.3517C323.126 67.8013 322.785 67.3196 322.322 66.9771C321.859 66.6346 321.298 66.4494 320.721 66.4488Z" fill="#6C63FF"/>
<path d="M201.72 233.439C201.007 233.439 200.323 233.722 199.819 234.226C199.314 234.729 199.031 235.413 199.031 236.125C199.031 236.838 199.314 237.521 199.819 238.025C200.323 238.529 201.007 238.812 201.72 238.812H209.49C210.204 238.812 210.888 238.529 211.392 238.025C211.897 237.521 212.18 236.838 212.18 236.125C212.18 235.413 211.897 234.729 211.392 234.226C210.888 233.722 210.204 233.439 209.49 233.439H201.72Z" fill="#6C63FF"/>
<path d="M265.972 213.738H233.697C233.494 213.738 233.296 213.744 233.099 213.762C230.991 213.912 229.017 214.854 227.576 216.399C226.134 217.943 225.332 219.976 225.329 222.087C225.327 224.199 226.125 226.233 227.563 227.781C229.001 229.328 230.973 230.275 233.081 230.43C233.285 230.448 233.488 230.454 233.697 230.454H265.972C268.191 230.454 270.32 229.573 271.889 228.006C273.458 226.438 274.34 224.312 274.34 222.096C274.34 219.879 273.458 217.753 271.889 216.186C270.32 214.618 268.191 213.738 265.972 213.738Z" fill="#FF6584"/>
<path opacity="0.2" d="M230.446 229.791C235.944 229.087 240.272 222.155 240.272 213.738H239.076C239.076 221.97 234.785 228.663 229.513 228.663V229.331L230.446 229.791Z" fill="black"/>
<path opacity="0.2" d="M242.065 229.857V228.663C247.338 228.663 251.628 221.967 251.628 213.738H252.823C252.823 222.626 247.997 229.857 242.065 229.857Z" fill="black"/>
<path opacity="0.2" d="M254.616 229.857V228.663C259.889 228.663 264.179 221.967 264.179 213.738H265.375C265.375 222.626 260.548 229.857 254.616 229.857Z" fill="black"/>
<path d="M324.546 213.738H292.271C292.067 213.738 291.87 213.744 291.673 213.762C289.564 213.912 287.591 214.854 286.149 216.399C284.708 217.943 283.905 219.976 283.903 222.087C283.901 224.199 284.699 226.233 286.137 227.781C287.575 229.328 289.547 230.275 291.655 230.43C291.858 230.448 292.061 230.454 292.271 230.454H324.546C326.765 230.454 328.894 229.573 330.463 228.006C332.032 226.438 332.914 224.312 332.914 222.096C332.914 219.879 332.032 217.753 330.463 216.186C328.894 214.618 326.765 213.738 324.546 213.738Z" fill="#FF6584"/>
<path opacity="0.2" d="M289.019 229.791C294.518 229.087 298.845 222.155 298.845 213.738H297.65C297.65 221.97 293.358 228.663 288.087 228.663V229.331L289.019 229.791Z" fill="black"/>
<path opacity="0.2" d="M300.638 229.857V228.663C305.911 228.663 310.201 221.967 310.201 213.738H311.397C311.397 222.626 306.571 229.857 300.638 229.857Z" fill="black"/>
<path opacity="0.2" d="M313.19 229.857V228.663C318.463 228.663 322.753 221.967 322.753 213.738H323.948C323.948 222.626 319.122 229.857 313.19 229.857Z" fill="black"/>
<path d="M263.61 133.476C259.38 131.193 254.151 133.683 252.043 137.723C249.479 142.637 251.604 148.545 254.594 152.746C257.701 157.111 261.917 160.714 263.991 165.758C265.975 170.505 266.21 175.801 264.655 180.704C263.1 185.608 259.855 189.803 255.496 192.543C253.551 193.772 255.348 196.873 257.306 195.636C261.581 192.969 264.963 189.089 267.02 184.494C269.078 179.898 269.717 174.794 268.857 169.833C268.42 167.261 267.588 164.771 266.389 162.453C265.09 160.087 263.524 157.877 261.723 155.865C258.611 152.187 254.695 148.133 254.5 143.016C254.464 142.352 254.51 141.686 254.638 141.034C254.731 140.578 254.87 140.133 255.052 139.705C255.487 138.785 256.132 137.981 256.936 137.357C257.681 136.763 258.562 136.365 259.5 136.197C260.287 136.08 261.09 136.21 261.8 136.569C263.831 137.665 265.644 134.573 263.61 133.476Z" fill="#E6E6E6"/>
<path d="M317.572 155.143C315.771 154.565 313.846 154.485 312.004 154.913C310.161 155.341 308.469 156.26 307.108 157.572C306.404 158.295 305.883 159.175 305.587 160.138C305.292 161.102 305.23 162.123 305.408 163.115C305.75 165.285 307.122 167.213 308.61 168.767C311.523 171.807 315.599 173.773 318.041 177.263C319.124 178.75 319.804 180.491 320.014 182.318C320.139 183.96 319.838 185.606 319.139 187.097C317.317 190.796 313.701 193.311 309.886 194.931C308.995 195.309 308.798 196.622 309.243 197.381C309.492 197.782 309.885 198.072 310.341 198.192C310.798 198.312 311.283 198.251 311.696 198.024C318.715 195.044 325.21 188.368 323.274 180.166C322.255 175.852 319.134 172.807 315.773 170.16C314.103 168.938 312.527 167.594 311.055 166.14C309.893 164.907 308.686 163.223 308.899 161.552C308.985 160.971 309.269 160.437 309.705 160.042C310.233 159.56 310.832 159.163 311.481 158.863C312.277 158.482 313.141 158.262 314.023 158.217C314.905 158.171 315.787 158.3 316.618 158.597C317.077 158.719 317.565 158.656 317.977 158.422C318.39 158.188 318.694 157.802 318.824 157.346C318.941 156.888 318.876 156.403 318.642 155.993C318.409 155.582 318.025 155.277 317.572 155.143V155.143Z" fill="#E6E6E6"/>
<path d="M290.271 104.19C289.203 103.278 287.854 102.759 286.449 102.72C285.117 102.745 283.821 103.163 282.727 103.922C280.254 105.716 278.504 108.334 277.794 111.303C275.982 118.237 278.346 125.709 281.63 131.815C283.29 134.902 285.224 137.832 286.895 140.913C288.507 143.859 289.744 146.995 290.578 150.247C292.28 156.916 292.431 163.885 291.022 170.621C289.587 177.326 286.568 183.965 281.432 188.592C281.096 188.927 280.907 189.383 280.907 189.858C280.907 190.333 281.096 190.789 281.432 191.124C281.768 191.46 282.224 191.649 282.7 191.649C283.175 191.649 283.631 191.46 283.968 191.124C288.526 187.018 291.575 181.386 293.415 175.594C295.446 169.053 296.04 162.151 295.156 155.359C294.757 151.977 293.986 148.649 292.857 145.436C291.634 142.199 290.107 139.085 288.296 136.135C284.925 130.443 281.337 124.686 280.849 117.908C280.609 114.575 281.027 111.101 283.091 108.42C282.978 108.567 283.182 108.314 283.182 108.313C283.308 108.163 283.437 108.017 283.572 107.876C283.828 107.601 284.103 107.345 284.396 107.109C284.333 107.159 284.175 107.265 284.464 107.065C284.607 106.965 284.754 106.87 284.905 106.781C285.027 106.709 285.153 106.645 285.279 106.579C285.353 106.541 285.429 106.505 285.505 106.471C285.331 106.547 285.341 106.547 285.535 106.474C285.675 106.43 286.37 106.28 285.984 106.328C286.113 106.313 286.242 106.305 286.372 106.303C286.427 106.302 286.91 106.327 286.674 106.301C286.398 106.271 286.892 106.35 286.896 106.351C287.051 106.389 287.203 106.437 287.351 106.495C286.978 106.346 287.963 106.899 287.736 106.723C288.079 107.045 288.533 107.224 289.004 107.224C289.475 107.224 289.928 107.045 290.271 106.723C290.89 106.105 291.04 104.787 290.271 104.19L290.271 104.19Z" fill="#E6E6E6"/>
<path d="M152.583 373.361L139.065 376.943L114.235 262.307L142.1 259.827L152.583 373.361Z" fill="#FFB9B9"/>
<path d="M90.7318 375.123L76.9024 377.21L64.7484 260.552L92.7173 261.124L90.7318 375.123Z" fill="#FFB9B9"/>
<path d="M83.6114 209.123L84.8884 232.932C84.9354 233.808 84.7931 234.683 84.4713 235.499C84.1496 236.315 83.6558 237.052 83.0235 237.661C82.3913 238.269 81.6353 238.735 80.807 239.026C79.9787 239.317 79.0975 239.426 78.2231 239.347C76.794 239.217 75.4559 238.59 74.4428 237.574C73.4297 236.559 72.806 235.221 72.6806 233.793L70.3688 207.469L52.1602 145.742L52.7119 106.061L74.2312 107.163L83.6114 209.123Z" fill="#FFB9B9"/>
<path d="M95.1988 267.543C84.4197 263.805 71.9127 263.07 57.678 265.338C59.6968 241.453 60.8659 219.272 59.8851 201.407H133.271L95.1988 267.543Z" fill="#2F2E41"/>
<path d="M146.514 266.992C135.404 272.862 119.333 275.672 100.716 276.912L77.5419 203.06L134.375 201.958L146.514 266.992Z" fill="#2F2E41"/>
<path d="M175.122 385.345L135.142 386.823C130.021 387.013 129.751 382.62 130.718 377.593L135.451 364.094C146.108 374.522 147.111 375.104 151.679 360.27L165.621 371.269L175.941 373.037C177.386 373.284 178.697 374.034 179.641 375.155C180.586 376.275 181.102 377.693 181.1 379.158C181.098 380.761 180.474 382.301 179.359 383.454C178.244 384.608 176.726 385.285 175.122 385.345Z" fill="#2F2E41"/>
<path d="M114.57 385.345L74.5907 386.823C69.4694 387.013 69.1993 382.62 70.1661 377.593L74.8994 364.094C85.5559 374.522 86.5594 375.104 91.1277 360.27L105.07 371.269L115.389 373.037C116.835 373.284 118.146 374.034 119.09 375.155C120.034 376.275 120.551 377.693 120.549 379.158C120.546 380.761 119.922 382.301 118.807 383.454C117.693 384.608 116.174 385.285 114.57 385.345Z" fill="#2F2E41"/>
<path d="M123.891 47.6406C135.776 47.6406 145.41 38.0174 145.41 26.1464C145.41 14.2755 135.776 4.65222 123.891 4.65222C112.006 4.65222 102.372 14.2755 102.372 26.1464C102.372 38.0174 112.006 47.6406 123.891 47.6406Z" fill="#FFB9B9"/>
<path d="M112.855 64.1745L87.4738 56.4589L104.579 31.1064L123.891 39.3736L112.855 64.1745Z" fill="#FFB9B9"/>
<path d="M136.582 208.02C110.49 213.88 81.5253 211.555 56.5744 204.714C62.5494 171.434 59.6647 135.687 53.8155 106.612C49.2372 83.8539 61.3146 64.7569 81.4043 55.3565C85.7225 53.8097 90.2148 52.7994 94.78 52.3481C108.872 51.1009 121.272 61.6553 122.742 75.7099L136.582 208.02Z" fill="#6C63FF"/>
<path d="M68.7135 117.635L50.5049 115.43L56.0228 86.7713H68.7135V117.635Z" fill="#6C63FF"/>
<path d="M123.59 29.5497L120.294 28.0863C119.547 27.7557 118.737 27.5914 117.92 27.6046C117.103 27.6178 116.299 27.8082 115.563 28.1627C114.827 28.5173 114.177 29.0274 113.658 29.6578C113.139 30.2881 112.764 31.0237 112.558 31.8134L107.964 40.1047L96.5208 38.2956L96.9205 20.7436C97.4415 17.4267 98.6385 14.252 100.437 11.4158C102.236 8.57971 104.599 6.14252 107.379 4.25514C110.159 2.36776 113.297 1.07034 116.599 0.443198C119.901 -0.183949 123.297 -0.127481 126.577 0.609107L126.889 0.679683C132.475 1.94193 139.727 6.03862 143.513 10.3391L150.567 18.3517C150.901 18.7318 151.125 19.1962 151.214 19.6945C151.302 20.1927 151.253 20.7057 151.07 21.1777C150.887 21.6497 150.578 22.0627 150.177 22.3716C149.776 22.6806 149.298 22.8738 148.794 22.9303L139.147 23.9935L123.59 29.5497Z" fill="#2F2E41"/>
<path d="M194.967 176.135L182.611 186.961C182.432 187.118 182.198 187.197 181.961 187.181C181.724 187.165 181.503 187.056 181.346 186.878C181.189 186.699 181.11 186.466 181.125 186.229C181.141 185.993 181.25 185.771 181.428 185.615L193.785 174.789L191.42 172.096L179.063 182.922C178.885 183.078 178.651 183.157 178.414 183.142C178.177 183.126 177.956 183.017 177.799 182.839C177.642 182.66 177.563 182.427 177.578 182.19C177.594 181.953 177.703 181.732 177.881 181.576L190.238 170.75L187.873 168.057L175.516 178.883C175.428 178.96 175.325 179.02 175.213 179.058C175.102 179.096 174.984 179.111 174.866 179.104C174.749 179.096 174.634 179.065 174.528 179.013C174.423 178.961 174.328 178.889 174.25 178.8C174.173 178.712 174.113 178.609 174.076 178.498C174.038 178.386 174.022 178.268 174.03 178.151C174.038 178.034 174.068 177.919 174.121 177.813C174.173 177.708 174.245 177.614 174.334 177.536L186.691 166.71L183.735 163.344L166.273 178.643C164.714 180.009 163.672 181.869 163.322 183.91C162.972 185.952 163.334 188.052 164.349 189.858L111.628 236.047L116.358 241.433L169.044 195.274C170.651 196.541 172.652 197.206 174.698 197.154C176.745 197.101 178.709 196.334 180.249 194.986L197.923 179.501L194.967 176.135Z" fill="#E6E6E6"/>
<path d="M134.927 209.123L136.204 232.932C136.251 233.808 136.108 234.683 135.787 235.499C135.465 236.315 134.971 237.052 134.339 237.661C133.706 238.269 132.951 238.735 132.122 239.026C131.294 239.317 130.413 239.426 129.538 239.347C128.109 239.217 126.771 238.59 125.758 237.574C124.745 236.559 124.121 235.221 123.996 233.793L121.684 207.469L103.475 145.742L104.027 106.061L125.546 107.163L134.927 209.123Z" fill="#FFB9B9"/>
<path d="M127.202 113.226C120.654 106.952 112.011 106.722 102.372 109.368V79.7485C102.372 76.2027 103.782 72.8022 106.292 70.2949C108.802 67.7877 112.207 66.3792 115.757 66.3792C117.391 66.3792 119.008 66.7054 120.514 67.3388C122.019 67.9722 123.383 68.8999 124.525 70.0673C125.667 71.2348 126.563 72.6184 127.161 74.1369C127.76 75.6554 128.049 77.2781 128.01 78.9096L127.202 113.226Z" fill="#6C63FF"/>
</g>
<defs>
<clipPath id="clip0">
<rect width="432" height="400" fill="white"/>
</clipPath>
</defs>
</svg>
