<svg width="607" height="461" viewBox="0 0 607 461" fill="none" xmlns="http://www.w3.org/2000/svg">
<path opacity="0.1" d="M599.278 132.979C599.172 133.474 599.072 133.969 598.955 134.459C595.308 151.289 589.348 167.507 580.486 182.401C580.191 182.897 579.896 183.392 579.596 183.887C573.752 193.47 566.76 202.302 558.775 210.187C554.36 214.549 549.546 218.694 543.819 221.681C535.797 225.876 526.417 227.579 517.199 228.97C507.625 230.422 497.918 231.635 488.239 232.942C484.799 233.399 481.38 233.883 477.981 234.395C468.629 235.78 459.345 237.382 450.282 239.508C439.08 242.128 428.221 245.561 417.964 250.39C417.145 250.761 416.335 251.154 415.534 251.57C414.733 251.97 413.927 252.377 413.138 252.788C412.348 253.2 411.57 253.612 410.797 254.035C410.397 254.252 409.997 254.469 409.602 254.697C409.207 254.925 408.818 255.125 408.434 255.348C407.278 255.993 406.144 256.655 405.01 257.323L404.965 257.351C404.214 257.79 403.475 258.241 402.741 258.691C398.549 261.24 394.446 263.899 390.343 266.575L387.763 268.244L383.766 270.831C382.987 271.338 382.192 271.844 381.408 272.345C380.852 272.712 380.297 273.079 379.69 273.458C376.777 275.294 373.825 277.096 370.795 278.815C370.078 279.227 369.355 279.639 368.627 280.039C362.505 283.457 356.103 286.346 349.49 288.674L349.401 288.708C346.074 289.869 342.68 290.828 339.238 291.579C337.253 292.013 335.263 292.369 333.25 292.641C327.87 293.405 322.415 293.481 317.016 292.869C306.413 291.64 296.478 287.567 285.881 286.193C264.065 283.411 242.877 292.374 222.361 299.396C217.317 301.12 212.235 302.736 207.117 304.242C203.714 305.249 200.3 306.2 196.859 307.118C175.774 312.693 154.255 316.469 132.533 318.407C123.452 319.297 114.318 319.5 105.207 319.013C101.743 318.802 98.3182 318.457 94.9546 317.901C83.446 316.12 72.7157 312.387 64.0537 305.549C56.9594 299.935 51.8834 292.619 48.0194 284.963C44.0639 277.152 41.2712 268.803 39.7298 260.182C39.5186 259.009 39.3295 257.829 39.1739 256.65C38.8959 254.632 38.6883 252.603 38.5512 250.563C37.8031 239.689 39.1006 228.771 42.3763 218.377C46.0457 206.737 52.1614 195.565 54.8523 183.837C54.9635 183.34 55.0691 182.845 55.1692 182.351C55.5367 180.57 55.8095 178.77 55.9865 176.96C57.3597 162.55 52.0947 148.502 47.9638 134.409C47.8192 133.919 47.6747 133.424 47.5357 132.929C47.0909 131.363 46.6647 129.8 46.257 128.238C42.4319 113.339 41.37 97.3876 44.7781 82.5157C44.8837 82.0205 45.0116 81.5254 45.1339 81.0358C47.4155 71.6351 51.706 62.8409 57.71 55.259C64.0926 47.2472 72.4711 40.5763 81.4222 34.7177C85.7848 31.8616 90.2956 29.1929 94.9546 26.7114C98.2904 24.931 101.708 23.2452 105.207 21.654C133.256 8.85742 165.252 2.60934 196.892 3.98915C198.56 4.06148 200.228 4.1505 201.896 4.2729C203.564 4.3953 205.387 4.53996 207.133 4.70131C227.515 6.682 247.347 11.4612 267.039 16.6856C273.639 18.4382 280.227 20.2353 286.81 21.999C289.74 22.7779 292.664 23.5568 295.594 24.3135C309.944 28.0245 324.505 31.385 339.249 33.8942C342.663 34.484 346.08 35.0218 349.501 35.5077C361.379 37.2547 373.353 38.271 385.356 38.5511C390.022 38.6438 394.691 38.603 399.361 38.4287C401.718 38.3434 404.077 38.2154 406.438 38.0448C430.818 36.3256 454.38 30.5727 477.981 25.1981C481.395 24.4192 484.814 23.6514 488.239 22.8947C492.731 21.9044 497.223 20.9474 501.738 20.0628C529.831 14.538 554.872 17.7149 580.992 29.115C586.929 31.7021 592.862 34.8289 596.498 39.6861C600.134 44.5432 601.046 50.5075 601.724 56.266C602.686 64.4669 603.314 72.7736 603.553 81.1248C603.553 81.6144 603.553 82.1096 603.586 82.6047C603.964 99.474 602.708 116.505 599.278 132.979Z" fill="#6C63FF"/>
<path opacity="0.1" d="M412.927 182.402H411.092V183.058V183.887H413.171L412.927 182.402ZM392.116 182.402C392.114 182.414 392.114 182.428 392.116 182.44C392.066 182.847 392.011 183.253 391.955 183.665V183.776V183.887H407.856V183.798L408.968 182.402H392.116ZM349.501 182.402V134.459H367.793C367.598 134.331 367.398 134.197 367.192 134.075L366.925 133.902L366.581 133.691C366.381 133.574 366.18 133.457 365.969 133.346C365.758 133.235 365.63 133.157 365.452 133.062L365.33 132.996H365.302H349.501V130.353L349.073 130.52L348.623 130.731H348.589L348.495 130.781L348.211 130.931L347.928 131.082C347.65 131.232 347.372 131.399 347.094 131.571L346.827 131.749L346.271 132.105C345.554 132.584 344.848 133.085 344.119 133.552C343.936 133.669 343.752 133.786 343.563 133.891C343.169 134.125 342.763 134.348 342.346 134.548C342.168 134.637 341.996 134.715 341.79 134.787L341.49 134.904L341.212 134.999C340.559 135.226 339.89 135.401 339.21 135.521V182.39H311.784C311.784 182.446 311.823 182.491 311.84 182.546C311.99 182.991 312.14 183.431 312.284 183.876H339.249V235.263C339.39 235.263 339.529 235.263 339.666 235.263L340.15 235.29L341.023 235.34L342.418 235.507L343.057 235.569L343.752 235.641H343.858L345.087 235.791L345.348 235.825L345.943 235.908L346.794 236.03L348.834 235.941L349.112 235.991C349.223 235.991 349.34 236.025 349.457 236.047V183.887H391.9V183.776V183.665C391.955 183.253 392.011 182.847 392.061 182.44C392.058 182.428 392.058 182.414 392.061 182.402H349.501ZM412.927 182.402H411.092V183.058V183.887H413.171L412.927 182.402ZM390.971 182.402C390.905 182.897 390.843 183.392 390.777 183.887H408.507L409.713 182.402H390.971ZM349.501 182.402V134.459H367.793C367.598 134.331 367.398 134.197 367.192 134.075L366.925 133.902L366.581 133.691C366.381 133.574 366.18 133.457 365.969 133.346C365.758 133.235 365.63 133.157 365.452 133.062L365.33 132.996H365.291H349.501V130.353L349.073 130.52L348.623 130.731H348.589L348.495 130.781L348.211 130.931L347.928 131.082C347.65 131.232 347.372 131.399 347.094 131.571L346.827 131.749L346.271 132.105C345.554 132.584 344.848 133.085 344.119 133.552C343.936 133.669 343.752 133.786 343.563 133.891C343.169 134.125 342.763 134.348 342.346 134.548C342.168 134.637 341.996 134.715 341.79 134.787L341.49 134.904L341.212 134.999C340.559 135.226 339.89 135.401 339.21 135.521V182.39H311.784C311.784 182.446 311.823 182.491 311.84 182.546C311.99 182.986 312.145 183.431 312.29 183.876H339.249V235.257H339.666L340.15 235.285L341.023 235.335L342.418 235.507L343.057 235.569L343.752 235.641H343.858L345.087 235.791L345.348 235.825L345.943 235.908L346.794 236.03L348.834 235.941L349.112 235.991C349.223 235.991 349.34 236.025 349.457 236.047V183.887H390.788C390.854 183.392 390.916 182.897 390.982 182.402H349.501ZM488.239 82.5659H603.586C603.586 82.0707 603.586 81.5755 603.553 81.0859H488.239V22.8781C484.814 23.6199 481.395 24.3877 477.981 25.1815V81.0859H352.531L352.214 80.8022L352.692 80.3793L399.355 38.4176C394.685 38.5957 390.017 38.6365 385.35 38.54L349.496 70.7763V35.5078C346.071 35.0219 342.653 34.4841 339.243 33.8943V69.1517L286.821 21.999C280.238 20.2353 273.65 18.4383 267.05 16.6857L338.343 80.8022L338.026 81.0859H207.15V4.75146C205.404 4.58826 203.658 4.44546 201.913 4.32306C200.245 4.20065 198.577 4.11164 196.909 4.03931V81.0859H105.207V21.7042C101.745 23.2917 98.3275 24.9775 94.9546 26.7616V81.0859H45.1339C45.0116 81.5755 44.8837 82.0707 44.7781 82.5659H94.9546V132.979H47.5357C47.6747 133.474 47.8193 133.969 47.9638 134.459H94.9546V182.402H55.1692C55.0691 182.895 54.9635 183.39 54.8523 183.887H94.9546V317.934C98.2905 318.452 101.743 318.813 105.207 319.047V183.887H196.892V307.141C200.334 306.222 203.747 305.271 207.15 304.264V183.887H339.249V291.573C342.692 290.822 346.086 289.864 349.412 288.702L349.501 288.669V183.887H477.981V234.395C481.391 233.894 484.81 233.414 488.239 232.954V183.887H579.596C579.896 183.392 580.191 182.897 580.486 182.402H488.239V134.459H598.955C599.072 133.969 599.172 133.474 599.277 132.979H488.239V82.5659ZM105.207 82.5659H196.892V132.979H105.207V82.5659ZM105.207 182.402V134.459H196.892V182.402H105.207ZM207.15 82.5659H339.249V132.979H207.15V82.5659ZM207.15 182.402V134.459H339.249V182.402H207.15ZM477.981 182.402H349.501V134.459H477.981V182.402ZM477.981 132.979H349.501V83.9179L351.303 82.5659H477.981V132.979ZM392.116 182.402C392.114 182.414 392.114 182.428 392.116 182.44C392.066 182.847 392.011 183.253 391.955 183.665V183.776V183.887H407.856V183.798L408.968 182.402H392.116ZM412.927 182.402H411.092V183.058V183.887H413.171L412.927 182.402ZM349.501 182.402V134.459H367.793C367.598 134.331 367.398 134.197 367.192 134.075L366.925 133.902L366.581 133.691C366.381 133.574 366.18 133.457 365.969 133.346C365.758 133.235 365.63 133.157 365.452 133.062L365.33 132.996H365.302H349.501V130.353L349.073 130.52L348.623 130.731H348.589L348.495 130.781L348.211 130.931L347.928 131.082C347.65 131.232 347.372 131.399 347.094 131.571L346.827 131.749L346.271 132.105C345.554 132.584 344.848 133.085 344.119 133.552C343.936 133.669 343.752 133.786 343.563 133.891C343.169 134.125 342.763 134.348 342.346 134.548C342.168 134.637 341.996 134.715 341.79 134.787L341.49 134.904L341.212 134.999C340.559 135.226 339.89 135.401 339.21 135.521V182.39H311.784C311.784 182.446 311.823 182.491 311.84 182.546C311.99 182.991 312.14 183.431 312.284 183.876H339.249V235.263C339.39 235.263 339.529 235.263 339.666 235.263L340.15 235.29L341.023 235.34L342.418 235.507L343.057 235.569L343.752 235.641H343.858L345.087 235.791L345.348 235.825L345.943 235.908L346.794 236.03L348.834 235.941L349.112 235.991C349.223 235.991 349.34 236.025 349.457 236.047V183.887H391.9V183.776V183.665C391.955 183.253 392.011 182.847 392.061 182.44C392.058 182.428 392.058 182.414 392.061 182.402H349.501Z" fill="#6C63FF"/>
<path opacity="0.1" d="M149.29 47.8592H150.085C149.823 47.7483 149.595 47.5699 149.424 47.3422C149.253 47.1145 149.145 46.8457 149.112 46.5629C149.112 45.5392 150.641 44.7046 152.509 44.7046H176.282C178.15 44.7046 179.674 45.5392 179.674 46.5629C179.674 47.581 178.15 48.4212 176.282 48.4212H175.487C175.75 48.5302 175.978 48.7073 176.149 48.9342C176.32 49.1611 176.428 49.4296 176.46 49.712C176.46 50.5855 175.348 51.3199 173.864 51.5146H180.708C182.57 51.5146 184.099 52.3492 184.099 53.3729C184.099 54.3966 182.57 55.2312 180.708 55.2312H156.929C155.066 55.2312 153.538 54.3911 153.538 53.3729C153.538 52.4994 154.649 51.7705 156.134 51.5702H149.29C147.422 51.5702 145.898 50.7357 145.898 49.712C145.898 48.6882 147.422 47.8592 149.29 47.8592Z" fill="#6C63FF"/>
<path opacity="0.1" d="M406.95 65.5353H407.745C407.484 65.4235 407.257 65.2448 407.087 65.0172C406.917 64.7896 406.81 64.5211 406.777 64.2389C406.777 63.2152 408.301 62.3806 410.169 62.3806H433.942C435.81 62.3806 437.339 63.2152 437.339 64.2389C437.339 65.2571 435.81 66.0916 433.942 66.0916H433.153C433.414 66.2033 433.641 66.3821 433.811 66.6097C433.98 66.8373 434.087 67.1058 434.12 67.388C434.12 68.2615 433.008 68.9959 431.524 69.1906H438.368C440.236 69.1906 441.759 70.0252 441.759 71.0489C441.759 72.0726 440.236 72.9072 438.368 72.9072H414.594C412.726 72.9072 411.197 72.0671 411.197 71.0489C411.197 70.1754 412.309 69.441 413.794 69.2463H406.95C405.087 69.2463 403.558 68.4117 403.558 67.388C403.558 66.3643 405.087 65.5353 406.95 65.5353Z" fill="#6C63FF"/>
<path opacity="0.1" d="M112.801 141.18H113.591C113.329 141.069 113.102 140.89 112.932 140.662C112.762 140.435 112.656 140.166 112.623 139.883C112.623 138.865 114.152 138.025 116.015 138.025H139.794C141.656 138.025 143.185 138.865 143.185 139.883C143.185 140.907 141.656 141.742 139.794 141.742H138.999C139.26 141.851 139.488 142.028 139.658 142.255C139.828 142.482 139.934 142.751 139.966 143.033C139.966 143.906 138.854 144.64 137.37 144.835H144.214C146.082 144.835 147.611 145.675 147.611 146.693C147.611 147.712 146.082 148.552 144.214 148.552H120.463C118.595 148.552 117.071 147.717 117.071 146.693C117.071 145.825 118.183 145.091 119.668 144.891H112.801C110.933 144.891 109.404 144.056 109.404 143.033C109.404 142.009 110.955 141.18 112.801 141.18Z" fill="#6C63FF"/>
<path opacity="0.1" d="M560.444 339.446C564.437 319.889 515.541 293.374 451.231 280.222C386.921 267.07 331.55 272.262 327.556 291.818C323.563 311.375 372.459 337.89 436.769 351.042C501.079 364.194 556.45 359.002 560.444 339.446Z" fill="#6C63FF"/>
<path d="M430.573 214.137C430.573 214.137 436.895 183.086 461.029 185.962C461.029 185.962 477.709 187.108 481.139 198.036V222.188L430.573 214.137Z" fill="#3A3768"/>
<path d="M562.744 225.643L347.822 207.811L320.24 213.564L321.964 252.093L323.843 252.321L325.983 310.178L536.881 348.128L559.297 329.151V266.431L562.166 264.745L562.744 225.643Z" fill="#D48A9B"/>
<path opacity="0.05" d="M563.034 225.643L562.455 264.745L539.182 275.672L538.893 234.84L563.034 225.643Z" fill="black"/>
<path opacity="0.05" d="M559.297 266.469L559.581 328.004L537.17 346.982L538.61 275.672L559.297 266.469Z" fill="black"/>
<path opacity="0.05" d="M324.132 254.624L538.782 280.835L538.893 275.861L323.971 252.666L324.132 254.624Z" fill="black"/>
<path opacity="0.05" d="M559.297 268.728V266.469L538.031 275.861V280.846L559.297 268.728Z" fill="black"/>
<path d="M319.951 213.564L347.533 207.811L562.455 225.643L538.321 234.84L319.951 213.564Z" fill="#EFC6CD"/>
<path opacity="0.1" d="M539.56 226.75L550.107 227.44L532.627 232.675L523.726 232.036L539.56 226.75Z" fill="black"/>
<path d="M539.56 226.288L550.107 226.978L532.627 232.219L523.726 231.574L539.56 226.288Z" fill="white"/>
<path d="M538.298 227.473C538.715 227.295 539.155 227.635 539.599 227.718C539.855 227.768 540.117 227.718 540.372 227.768C540.889 227.835 541.401 228.18 541.896 228.007" fill="#D3DAE1"/>
<path d="M537.754 227.79C538.165 227.612 538.61 227.946 539.055 228.035C539.31 228.08 539.572 228.035 539.827 228.08C540.344 228.152 540.856 228.497 541.351 228.325" fill="#D3DAE1"/>
<path d="M536.497 228.425C536.914 228.247 537.359 228.58 537.804 228.664C538.054 228.714 538.321 228.664 538.571 228.714C539.093 228.786 539.605 229.131 540.094 228.953" fill="#D3DAE1"/>
<path opacity="0.1" d="M493.971 221.553L504.518 222.249L487.038 227.484L478.137 226.839L493.971 221.553Z" fill="black"/>
<path d="M493.971 221.097L504.518 221.787L487.038 227.023L478.137 226.383L493.971 221.097Z" fill="white"/>
<path d="M492.709 222.282C493.126 222.104 493.565 222.438 494.01 222.527C494.265 222.572 494.527 222.527 494.782 222.572C495.299 222.644 495.811 222.989 496.306 222.817" fill="#D3DAE1"/>
<path d="M492.164 222.599C492.575 222.421 493.02 222.755 493.465 222.839C493.721 222.889 493.982 222.839 494.238 222.889C494.755 222.961 495.266 223.306 495.761 223.128" fill="#D3DAE1"/>
<path d="M490.907 223.228C491.324 223.05 491.769 223.39 492.214 223.473C492.464 223.523 492.731 223.473 492.981 223.523C493.504 223.59 494.015 223.94 494.504 223.762" fill="#D3DAE1"/>
<path opacity="0.1" d="M515.837 224.152L526.389 224.842L508.91 230.083L500.003 229.437L515.837 224.152Z" fill="black"/>
<path d="M515.837 223.696L526.389 224.385L508.91 229.621L500.003 228.976L515.837 223.696Z" fill="white"/>
<path d="M514.575 224.881C514.992 224.703 515.437 225.036 515.882 225.12C516.132 225.17 516.393 225.12 516.649 225.17C517.166 225.237 517.683 225.587 518.172 225.409" fill="#D3DAE1"/>
<path d="M514.03 225.192C514.447 225.014 514.892 225.354 515.337 225.437C515.587 225.487 515.848 225.437 516.104 225.487C516.621 225.554 517.138 225.904 517.627 225.726" fill="#D3DAE1"/>
<path d="M512.779 225.827C513.191 225.648 513.635 225.982 514.08 226.071C514.336 226.116 514.597 226.071 514.853 226.116C515.37 226.188 515.882 226.533 516.376 226.361" fill="#D3DAE1"/>
<path opacity="0.1" d="M277.052 440.303C339.225 440.303 389.626 429.921 389.626 417.113C389.626 404.306 339.225 393.924 277.052 393.924C214.88 393.924 164.479 404.306 164.479 417.113C164.479 429.921 214.88 440.303 277.052 440.303Z" fill="#6C63FF"/>
<path d="M400.328 227.212C399.127 216.652 394.374 206.576 394.374 206.576L394.735 203.015C394.735 203.015 394.813 201.235 394.696 198.564C394.709 196.897 394.927 195.237 395.347 193.624C396.32 190.536 394.129 186.741 393.885 186.391C393.64 186.04 394.007 179.269 391.816 175.948C389.626 172.626 375.037 166.45 375.037 166.45C375.037 166.45 374.253 164.809 373.147 162.89L373.247 162.695C372.342 161.052 371.22 159.538 369.911 158.194C369.016 157.237 368.154 156.692 367.459 156.959C367.176 156.035 366.961 155.092 366.814 154.138C366.959 154.177 367.109 154.216 367.253 154.243C367.856 154.383 368.48 154.398 369.088 154.288C370.445 153.982 371.345 152.764 372.101 151.617C375.871 145.887 379.118 139.6 379.779 132.818C379.957 131.433 379.891 130.029 379.585 128.667C379.272 127.608 378.835 126.591 378.284 125.635C377.309 123.673 376.075 121.852 374.614 120.221C372.018 117.484 368.438 115.809 364.757 114.819C360.611 113.703 356.291 113.38 352.025 113.867C350.913 113.995 349.801 114.179 348.689 114.251C347.279 114.314 345.866 114.289 344.459 114.179L337.181 113.756L337.147 113.645L335.935 113.573C335.457 114.524 335.935 115.653 336.53 116.544C337.125 117.434 337.809 118.363 337.759 119.414C337.709 120.466 336.947 121.312 336.352 122.196C335.758 123.081 335.307 124.238 335.902 125.106C335.986 125.226 336.085 125.335 336.197 125.429C336.825 126.08 337.92 126.152 338.871 126.141H339.038C336.644 129.297 335.349 133.151 335.352 137.113C335.368 140.499 336.315 143.815 338.089 146.698C339.863 149.581 342.395 151.92 345.409 153.459C345.515 153.821 345.62 154.193 345.721 154.572C346.823 158.48 347.218 162.553 346.888 166.601L346.76 166.879L346.682 166.584C346.682 166.584 338.109 172.404 335.563 173.945C333.017 175.486 330.459 180.71 330.337 182.134C330.215 183.559 326.2 205.04 326.2 205.04C325.385 207.204 324.712 209.42 324.188 211.672L319.067 216.173C319.067 216.173 308.504 217.125 305.446 216.413L305.535 217.002C302.838 216.386 300.092 216.014 297.329 215.89C295.82 215.696 294.286 215.901 292.881 216.485L292.775 216.535L292.692 216.574C291.082 216.794 289.511 217.236 288.022 217.887C287.844 217.959 287.683 218.032 287.527 218.104L287.56 217.375L276.129 216.785L270.292 215.6C270.292 215.6 268.224 213.931 267.006 214.176C265.788 214.421 263.236 212.752 263.236 212.752C262.654 212.295 262.024 211.903 261.357 211.583C261.163 210.237 261.04 209.419 261.04 209.419C261.04 209.419 256.498 191.381 253.096 180.777C250.816 173.694 247.536 170.206 245.601 168.687C244.739 167.185 244.172 166.217 244.172 166.217C243.8 164.915 241.754 161.983 241.231 161.91C241.148 161.777 241.086 161.71 241.053 161.71C240.941 161.698 240.828 161.715 240.725 161.76C239.769 156.998 239.213 151.028 240.675 145.826C242.677 144.179 244.29 142.111 245.399 139.768C246.508 137.424 247.086 134.865 247.091 132.272C247.091 132.194 247.091 132.116 247.091 132.039C247.091 131.961 247.091 131.877 247.091 131.799C247.09 127.665 245.627 123.664 242.96 120.505L242.771 120.294C242.822 120.258 242.87 120.219 242.916 120.177C243.333 119.838 243.652 119.392 243.837 118.886C244.022 118.381 244.067 117.835 243.966 117.306C243.716 116.238 242.882 115.397 242.454 114.385C242.197 113.605 241.991 112.81 241.837 112.004C241.509 110.858 240.908 109.81 240.086 108.949L240.169 109.172C237.99 106.718 234.242 105.5 230.868 106.045C228.36 106.445 226.025 107.614 223.507 107.975C221.7 108.231 219.859 108.064 218.041 108.248C216.355 108.422 214.713 108.897 213.193 109.65C212.796 109.819 212.444 110.078 212.165 110.407C211.906 110.847 211.733 111.332 211.653 111.837C211.036 114.09 209.079 115.698 207.661 117.578C206.042 119.727 205.104 122.313 204.971 125C204.915 125.684 204.981 126.371 205.165 127.031C205.287 127.426 205.476 127.799 205.565 128.2C205.843 129.424 205.204 130.642 204.893 131.855C204.5 133.402 204.64 135.037 205.287 136.495C207.484 141.413 214.694 143.055 216.196 148.218C217.344 148.746 218.557 149.12 219.804 149.331C219.904 149.843 219.993 150.36 220.065 150.883C220.031 150.897 220 150.916 219.971 150.939C218.025 152.836 217.541 156.502 217.541 156.502L217.308 156.692C216.513 157.348 213.794 159.551 211.336 161.248C208.418 163.268 203.553 170.033 200.15 172.053C196.748 174.073 193.946 186.519 194.679 191.042C195.413 195.565 198.449 208.251 197.231 212.88C196.014 217.509 199.055 238.634 199.055 238.634C201.096 239.023 203.092 239.616 205.015 240.403L204.954 241.327L204.77 244.109C204.77 244.109 199.261 264.049 201.368 279.4C203.475 294.75 200.395 296.33 200.395 296.33C200.395 296.33 201.04 303.135 199.422 305.51C197.804 307.886 197.476 313.105 197.476 313.105C197.476 313.105 197.315 324.816 197.637 328.127C197.96 331.437 198.121 337.468 196.987 338.893C195.853 340.317 193.745 349.647 193.907 352.496C194.068 355.345 189.854 361.838 192.122 370.222C194.39 378.607 185.45 378.768 185.45 378.768C185.45 378.768 186.59 391.565 189.02 395.226L189.375 395.749C189.314 395.96 189.253 396.182 189.186 396.422C188.269 399.76 187.013 405.029 187.885 406.303C189.181 408.206 189.831 407.883 189.831 407.883L190.315 416.429C190.315 416.429 200.045 424.658 207.506 424.346C214.967 424.035 213.505 416.429 213.505 416.429L207.15 399.938L206.933 399.382L213.994 386.029C213.994 386.029 215.94 380.176 216.424 378.117C216.907 376.058 219.548 368.764 219.548 368.764C219.548 368.764 226.22 352.941 226.359 351.038C226.498 349.136 227.009 338.859 228.305 336.795C229.6 334.731 233.169 322.886 233.169 322.886L233.258 322.964C233.864 323.559 234.296 324.308 234.51 325.13C234.723 325.952 234.71 326.817 234.47 327.632C233.653 330.636 234.142 336.806 234.142 336.806C234.142 336.806 233.82 342.031 233.169 344.724C232.519 347.416 232.363 369.41 233.497 374.629C234.404 378.807 234.376 386.63 234.331 389.589C233.57 392.733 232.903 396.639 234.142 397.1C236.255 397.896 246.958 397.735 246.958 397.735C246.958 397.735 251.494 396.149 257.66 401.691C263.826 407.232 282.79 400.11 282.79 400.11C282.79 400.11 288.628 398.525 277.114 393.94C269.08 390.741 263.892 388.61 260.501 386.329C260.579 386.179 260.662 386.029 260.735 385.867C260.735 385.867 256.031 381.416 259.923 373.527C263.815 365.638 263.653 358.967 263.653 358.967L264.304 332.378L262.358 297.081L260.851 260.038L261.118 259.949C261.374 266.759 262.703 282.972 269.658 279.828C278.415 275.872 270.953 265.585 270.953 265.585L267.023 257.918L268.196 257.518L263.798 243.297C263.376 240.521 263.32 237.702 263.631 234.912C263.718 233.28 263.685 231.643 263.531 230.016C269.291 229.009 274.806 227.941 275.796 228.186C276.963 228.469 283.496 228.525 286.065 228.536C285.225 229.193 284.552 229.844 284.552 229.844L295.01 236.887C295.01 236.887 298.557 234.945 299.297 232.887C300.024 232.703 300.696 232.344 301.254 231.841C301.365 234.272 302.01 236.904 304.256 236.965C304.818 236.977 305.375 236.867 305.891 236.642L322.992 233.254L321.525 242.429L322.548 244.248C322.031 251.987 321.436 260.205 320.913 267.432L320.674 269.012L320.796 269.04C319.985 280.168 319.334 288.597 319.334 288.597C320.292 286.77 321.778 285.275 323.598 284.307L323.71 300.82C323.71 300.82 324.566 326.931 324.566 330.491C324.566 334.052 324.683 342.003 324.683 342.003C324.683 342.003 326.512 351.734 327.601 354.939C328.691 358.143 329.547 372.742 329.547 372.742C329.547 372.742 332.105 376.776 331.01 378.306C329.914 379.836 335.268 383.169 335.268 383.169C335.268 383.169 331.86 387.798 331.616 390.886C331.588 391.242 331.938 391.62 332.572 391.999C332.372 392.16 332.166 392.321 331.938 392.477C330.359 393.534 328.046 394.269 324.566 393.968C315.075 393.134 308.387 401.919 314.225 403.699C320.062 405.479 337.576 405.836 337.576 405.836C337.576 405.836 342.88 402.525 347.027 404.016C346.966 407.499 347.138 410.693 347.166 411.116L347.116 411.155C344.636 413.38 339.888 417.208 335.252 418.771C328.58 421.025 327.101 430.166 335.735 431.351C344.37 432.536 357.018 429.927 357.018 429.927C357.018 429.927 363.584 425.064 368.571 423.996C373.558 422.927 377.817 420.552 376.966 417.703C376.41 415.884 374.981 411.116 374.014 407.911C373.958 407.718 373.903 407.533 373.847 407.354C373.997 407.021 374.147 406.676 374.286 406.32C374.286 406.32 371.735 393.028 373.803 389.706C375.871 386.385 374.776 353.147 374.776 353.147C374.776 353.147 371.245 344.724 373.074 339.622C374.904 334.52 370.156 327.276 370.156 327.276C370.156 327.276 370.673 312.76 372.063 304.67C372.126 304.325 372.187 303.991 372.246 303.669C374.573 302.977 376.841 302.101 379.029 301.048C379.029 301.048 380.246 282.766 380.975 278.615C381.047 278.226 381.147 277.597 381.269 276.779L381.825 273.847L382.481 270.509L384.705 259.131L388.72 253.934L399.061 243.363C399.061 243.363 401.546 237.777 400.328 227.212ZM240.853 161.933L240.775 161.988C240.763 161.948 240.754 161.907 240.747 161.866C240.78 161.892 240.815 161.915 240.853 161.933ZM343.024 174.89L342.624 175.764L344.086 174.306L342.101 176.532L342.768 175.13L343.024 174.89ZM333.15 195.309C332.766 196.328 332.355 197.429 331.927 198.575L332.711 196.233L333.15 195.309Z" fill="url(#paint0_linear)"/>
<path d="M301.243 228.597C301.243 228.597 299.881 237.672 303.967 237.789C308.054 237.905 310.783 230.789 310.783 230.789L309.115 225.098L301.243 228.597Z" fill="#585B8A"/>
<path opacity="0.2" d="M301.243 228.597C301.243 228.597 299.881 237.672 303.967 237.789C308.054 237.905 310.783 230.789 310.783 230.789L309.115 225.098L301.243 228.597Z" fill="black"/>
<path d="M209.713 425.019C202.441 425.336 192.956 417.113 192.956 417.113L192.483 408.573C192.483 408.573 191.855 408.89 190.588 406.993C189.737 405.719 190.96 400.439 191.855 397.117C192.289 395.492 192.645 394.335 192.645 394.335L208.601 398.608L209.363 400.628L215.556 417.108C215.556 417.108 216.98 424.702 209.713 425.019Z" fill="#636992"/>
<path d="M283.029 400.828C283.029 400.828 264.543 407.944 258.566 402.408C252.59 396.872 248.136 398.452 248.136 398.452C248.136 398.452 237.706 398.614 235.649 397.818C234.437 397.356 235.093 393.401 235.849 390.252C236.361 388.076 236.917 386.279 236.917 386.279C236.917 386.279 255.086 380.109 257.932 383.903C258.787 385.018 259.81 385.994 260.962 386.796C264.254 389.178 269.397 391.336 277.53 394.658C288.717 399.243 283.029 400.828 283.029 400.828Z" fill="#636992"/>
<path d="M266.439 256.288L271.493 266.408C271.493 266.408 278.765 276.69 270.231 280.64C261.696 284.591 261.858 257.874 261.858 257.874L266.439 256.288Z" fill="#FFD6D6"/>
<path d="M245.262 168.526C245.262 168.526 250.794 171.057 254.113 181.65C257.432 192.244 261.858 210.276 261.858 210.276C261.858 210.276 264.86 230.672 264.382 235.735C264.078 238.524 264.132 241.34 264.543 244.114L268.807 258.346L260.273 261.351L247.158 211.066L245.262 168.526Z" fill="#DCE6F2"/>
<path opacity="0.05" d="M245.262 168.526C245.262 168.526 250.794 171.057 254.113 181.65C257.432 192.244 261.858 210.276 261.858 210.276C261.858 210.276 264.86 230.672 264.382 235.735C264.078 238.524 264.132 241.34 264.543 244.114L268.807 258.346L260.273 261.351L247.158 211.066L245.262 168.526Z" fill="black"/>
<path opacity="0.1" d="M208.601 398.614L209.363 400.633L208.429 402.419C204.793 404 195.786 402.737 195.786 402.737C195.786 402.737 194.118 400.617 191.838 397.128C192.272 395.504 192.628 394.346 192.628 394.346L208.601 398.614Z" fill="black"/>
<path opacity="0.1" d="M261.541 387.542C256.932 397.991 241.264 394.113 236.911 392.805C236.194 392.588 235.799 392.444 235.799 392.444C235.799 392.444 235.827 391.592 235.838 390.252C236.35 388.076 236.906 386.279 236.906 386.279C236.906 386.279 255.075 380.109 257.921 383.903C258.776 385.018 259.798 385.994 260.951 386.796C261.125 387.062 261.323 387.311 261.541 387.542Z" fill="black"/>
<path d="M260.746 374.261C256.954 382.162 261.541 386.596 261.541 386.596C256.932 397.039 241.264 393.167 236.911 391.854C236.194 391.642 235.799 391.498 235.799 391.498C235.799 391.498 236.116 380.582 235.01 375.363C233.903 370.144 234.059 348.167 234.693 345.48C235.327 342.793 235.638 337.569 235.638 337.569C235.638 337.569 235.165 331.404 235.955 328.4C236.192 327.588 236.208 326.727 236.001 325.907C235.794 325.087 235.371 324.338 234.776 323.737L234.693 323.654C234.693 323.654 231.218 335.516 229.95 337.563C228.683 339.61 228.216 349.898 228.055 351.795C227.893 353.692 221.416 369.51 221.416 369.51C221.416 369.51 218.892 376.782 218.42 378.835C217.947 380.888 216.046 386.746 216.046 386.746L208.429 401.457C204.793 403.037 195.786 401.774 195.786 401.774C195.786 401.774 194.051 399.549 191.677 395.921C189.303 392.293 188.202 379.48 188.202 379.48C188.202 379.48 196.892 379.319 194.679 370.94C192.467 362.561 196.575 356.074 196.42 353.225C196.264 350.376 198.316 341.051 199.422 339.627C200.528 338.203 200.367 332.194 200.05 328.872C199.733 325.551 199.894 313.85 199.894 313.85C199.894 313.85 200.211 308.632 201.79 306.261C203.369 303.891 202.741 297.087 202.741 297.087C202.741 297.087 205.738 295.507 203.686 280.168C201.635 264.828 207.022 244.905 207.022 244.905L207.206 242.123L207.495 237.616C207.495 237.616 252.69 234.767 256.326 238.245C257.276 239.21 258.056 240.329 258.633 241.555C259.877 244.231 260.756 247.063 261.246 249.973L263.142 297.888L265.038 333.151L264.404 359.718C264.404 359.718 264.543 366.35 260.746 374.261Z" fill="#565988"/>
<path opacity="0.1" d="M247.347 279.695L242.604 382.479L236.911 391.848C236.194 391.637 235.799 391.492 235.799 391.492C235.799 391.492 236.116 380.576 235.01 375.357C233.903 370.139 234.059 348.162 234.693 345.475C235.327 342.787 235.638 337.563 235.638 337.563C235.638 337.563 235.165 331.398 235.955 328.394C236.192 327.582 236.208 326.722 236.001 325.902C235.794 325.082 235.371 324.333 234.776 323.732L234.854 323.175L247.347 279.695Z" fill="black"/>
<path opacity="0.1" d="M196.275 390.074C196.275 390.074 208.601 385.172 210.497 386.735C212.393 388.299 195.964 390.686 195.964 390.686L196.275 390.074Z" fill="black"/>
<path opacity="0.1" d="M257.115 377.104C256.643 377.266 244.634 381.555 245.74 386.118C246.846 390.68 257.115 377.104 257.115 377.104Z" fill="black"/>
<path d="M219.587 143.149C219.587 143.149 223.612 152.875 221.483 157.86C219.354 162.845 244.472 171.38 244.472 171.38C244.472 171.38 237.128 152.402 244.239 141.725C251.35 131.048 219.587 143.149 219.587 143.149Z" fill="#FFD6D6"/>
<path d="M366.664 424.702C361.805 425.77 355.406 430.633 355.406 430.633C355.406 430.633 343.08 433.243 334.662 432.057C326.245 430.872 327.674 421.737 334.19 419.483C338.71 417.926 343.341 414.081 345.76 411.878C346.827 410.893 347.461 410.209 347.461 410.209L371.051 405.463C371.051 405.463 371.434 406.781 371.968 408.601C372.913 411.811 374.309 416.574 374.843 418.387C375.671 421.264 371.523 423.634 366.664 424.702Z" fill="#505484"/>
<path d="M360.621 406.436C360.621 406.436 350.663 407.505 346.516 405.134C342.368 402.764 336.441 406.559 336.441 406.559C336.441 406.559 319.373 406.203 313.685 404.422C307.998 402.642 314.514 393.851 323.76 394.697C327.129 395.003 329.408 394.263 330.948 393.206C332.557 392.102 333.678 390.42 334.079 388.51L354.094 389.695L356.873 396.794L360.621 406.436Z" fill="#505484"/>
<path opacity="0.1" d="M357.179 400.033C357.179 400.033 333.917 396.227 330.948 393.206C332.557 392.102 333.678 390.42 334.078 388.51L354.094 389.695L356.873 396.794L357.179 400.033Z" fill="black"/>
<path d="M322.692 266.848L322.931 301.593C322.931 301.593 323.76 327.687 323.76 331.248C323.76 334.809 323.876 342.748 323.876 342.748C323.876 342.748 325.655 352.474 326.723 355.679C327.79 358.883 328.619 373.482 328.619 373.482C328.619 373.482 331.11 377.516 330.042 379.046C328.975 380.576 334.19 383.909 334.19 383.909C334.19 383.909 330.854 388.538 330.637 391.62C330.42 394.703 357.179 399.081 357.179 399.081L346.755 292.107L338.454 265.307L322.692 266.848Z" fill="#575988"/>
<path opacity="0.1" d="M322.692 266.848L322.931 301.593C322.931 301.593 323.76 327.687 323.76 331.248C323.76 334.809 323.876 342.748 323.876 342.748C323.876 342.748 325.655 352.474 326.723 355.679C327.79 358.883 328.619 373.482 328.619 373.482C328.619 373.482 331.11 377.516 330.042 379.046C328.975 380.576 334.19 383.909 334.19 383.909C334.19 383.909 330.854 388.538 330.637 391.62C330.42 394.703 357.179 399.081 357.179 399.081L346.755 292.107L338.454 265.307L322.692 266.848Z" fill="black"/>
<path opacity="0.1" d="M371.968 408.629C364.223 427.106 345.804 412.846 345.804 412.846C345.804 412.846 345.804 412.49 345.76 411.878C346.827 410.893 347.461 410.209 347.461 410.209L371.051 405.463C371.051 405.463 371.434 406.809 371.968 408.629Z" fill="black"/>
<path d="M372.235 407.032C364.646 426.505 345.804 411.894 345.804 411.894C345.804 411.894 345.209 401.813 346.399 397.189C347.589 392.566 345.092 378.685 345.092 378.685C345.092 378.685 343.669 366.35 342.368 363.507C341.067 360.664 341.184 354.966 341.184 354.493C341.184 354.02 341.656 350.22 340.589 347.611C339.522 345.002 338.921 338.598 338.921 338.598C338.921 338.598 338.921 329.585 337.854 324.249L334.179 305.889L327.54 268.289L329.614 267.933L366.77 261.412C366.77 261.412 373.764 297.02 371.39 300.67C370.878 301.471 370.428 303.224 370.056 305.482C368.699 313.561 368.193 328.066 368.193 328.066C368.193 328.066 372.813 335.299 371.04 340.4C369.266 345.502 372.708 353.92 372.708 353.92C372.708 353.92 373.775 387.13 371.757 390.452C369.739 393.773 372.235 407.032 372.235 407.032Z" fill="#575988"/>
<path d="M368.677 164.258C368.677 164.258 335.018 187.976 342.602 176.114C346.688 169.727 345.937 161.593 344.336 155.451C343.527 152.327 342.409 149.291 341 146.387C341 146.387 369.6 134.214 365.808 145.124C364.919 147.666 364.541 150.359 364.696 153.047C364.923 157.088 366.305 160.98 368.677 164.258Z" fill="#D28690"/>
<path d="M308.076 218.577C308.076 218.577 293.854 214.465 291.485 218.499C289.117 222.533 292.197 231.385 296.489 232.809C300.781 234.233 310.633 227.985 310.633 227.985L308.076 218.577Z" fill="#D28690"/>
<path d="M324.355 211.583L318.428 217.041C318.428 217.041 308.115 217.987 305.151 217.275C305.151 217.275 307.881 235.541 303.967 237.794L327.907 232.931L324.355 211.583Z" fill="#585B8A"/>
<path opacity="0.1" d="M324.355 211.583L318.428 217.041C318.428 217.041 308.115 217.987 305.151 217.275C305.151 217.275 307.881 235.541 303.967 237.794L327.907 232.931L324.355 211.583Z" fill="black"/>
<path opacity="0.1" d="M248.264 133.185C248.264 137.907 246.39 142.435 243.053 145.774C239.717 149.113 235.191 150.989 230.473 150.989C221.344 146.599 212.682 143.027 212.682 133.185C212.587 130.789 212.977 128.399 213.828 126.158C214.678 123.917 215.973 121.871 217.633 120.143C219.293 118.415 221.285 117.04 223.489 116.101C225.693 115.161 228.064 114.677 230.459 114.677C232.855 114.677 235.226 115.161 237.43 116.101C239.634 117.04 241.625 118.415 243.286 120.143C244.946 121.871 246.24 123.917 247.091 126.158C247.941 128.399 248.331 130.789 248.236 133.185H248.264Z" fill="black"/>
<path d="M248.264 132.706C248.267 136.893 246.792 140.947 244.1 144.152C241.407 147.357 237.671 149.508 233.548 150.225C229.426 150.943 225.183 150.18 221.568 148.073C217.952 145.965 215.197 142.648 213.787 138.705C212.377 134.763 212.404 130.449 213.862 126.525C215.32 122.6 218.116 119.317 221.757 117.254C225.398 115.191 229.65 114.48 233.763 115.248C237.876 116.016 241.586 118.213 244.239 121.451C246.837 124.626 248.259 128.602 248.264 132.706Z" fill="#FFD6D6"/>
<path opacity="0.1" d="M258.633 241.572C256.873 242.666 255.031 243.622 253.123 244.432C253.123 244.432 244.117 243.124 242.816 244.665C241.515 246.206 230.028 246.802 230.028 246.802C230.028 246.802 212.487 245.973 209.88 243.719C209.074 243.066 208.176 242.534 207.217 242.139L207.506 237.633C207.506 237.633 252.701 234.784 256.337 238.261C257.283 239.227 258.06 240.347 258.633 241.572Z" fill="black"/>
<path d="M260.829 238.384C260.473 240.398 253.123 243.48 253.123 243.48C253.123 243.48 244.117 242.178 242.816 243.719C241.515 245.261 230.028 245.856 230.028 245.856C230.028 245.856 212.487 245.021 209.88 242.768C207.272 240.515 201.462 239.43 201.462 239.43C201.462 239.43 198.499 218.321 199.689 213.697C200.879 209.074 197.91 196.378 197.198 191.871C196.486 187.364 199.211 174.913 202.53 172.899C205.849 170.885 210.591 164.119 213.432 162.105C215.829 160.408 218.475 158.21 219.248 157.548L219.476 157.359C219.476 157.359 219.954 153.681 221.85 151.795C223.746 149.909 241.164 163.774 241.164 163.774C241.164 163.774 241.287 164.842 242.471 162.828C242.738 162.378 245.034 165.694 245.434 167.096C245.434 167.096 254.914 183.703 255.508 187.125C256.103 190.547 258.589 201.713 259.061 204.439C259.183 205.14 259.384 207.6 259.617 210.893C259.662 211.539 259.701 212.223 259.751 212.935C260.101 218.399 260.479 225.376 260.707 230.65C260.707 231.251 260.757 231.83 260.774 232.386C260.894 234.383 260.912 236.385 260.829 238.384Z" fill="#DCE6F2"/>
<path opacity="0.1" d="M200.645 195.565C200.645 195.565 207.161 203.51 209.296 203.51C211.431 203.51 200.645 195.565 200.645 195.565Z" fill="black"/>
<path opacity="0.1" d="M214.372 212.646C214.372 212.646 203.703 224.269 205.126 226.405C206.549 228.542 214.372 212.646 214.372 212.646Z" fill="black"/>
<path opacity="0.1" d="M206.549 235.774C206.549 235.774 218.781 222.371 219.337 217.748L206.549 235.774Z" fill="black"/>
<path opacity="0.1" d="M221.955 236.72C221.955 236.72 236.06 229.248 237.245 223.317C238.429 217.386 221.955 236.72 221.955 236.72Z" fill="black"/>
<path opacity="0.1" d="M239.852 164.614L237.895 169.355L241.153 170.896L244.356 179.853C244.356 179.853 253.185 197.524 252.829 206.715C252.473 215.906 254.43 229.721 254.43 229.721L259.523 228.775L257.121 201.741C256.747 197.555 255.699 193.458 254.018 189.607C249.949 180.282 242.376 163.068 241.898 163.068C241.248 163.068 241.704 163.307 241.704 163.307L239.852 164.614Z" fill="black"/>
<path d="M240.325 164.136L238.368 168.882L241.631 170.423L244.828 179.38C244.828 179.38 253.657 197.051 253.301 206.242C252.945 215.433 254.902 229.248 254.902 229.248L260.001 228.302L257.593 201.268C257.224 197.082 256.178 192.984 254.497 189.134C250.427 179.803 242.854 162.595 242.382 162.595C241.726 162.595 242.182 162.834 242.182 162.834L240.325 164.136Z" fill="#575989"/>
<path d="M298.04 233.838C295.561 233.649 289.612 230.639 287.249 229.387L286.248 228.831L286.371 219.645C286.955 219.301 287.56 218.995 288.183 218.727C291.341 217.347 297.818 215.472 301.065 221.509C305.446 229.604 301.182 234.05 298.04 233.838Z" fill="#FFD6D6"/>
<path opacity="0.1" d="M244.239 121.451C243.984 121.61 243.704 121.725 243.41 121.79C241.348 122.241 239.002 120.466 237.234 121.607C236.155 122.308 235.905 123.76 235.76 125.039C235.508 127.265 235.256 129.476 235.004 131.671C234.951 132.453 234.786 133.223 234.515 133.958C233.642 135.955 231.246 136.896 229.061 136.862C228.205 136.923 227.36 136.643 226.709 136.083C226.325 135.694 226.12 135.149 225.697 134.793C222.917 132.461 222.072 138.175 222.806 139.8C223.985 142.454 228.171 145.013 226.414 148.385C226.119 148.933 225.671 149.383 225.124 149.681C222.477 148.851 220.06 147.414 218.067 145.482C216.073 143.551 214.559 141.181 213.645 138.559C212.73 135.938 212.441 133.139 212.8 130.386C213.159 127.633 214.157 125.002 215.713 122.704C217.269 120.406 219.341 118.503 221.763 117.149C224.185 115.795 226.89 115.026 229.661 114.904C232.433 114.782 235.195 115.311 237.726 116.448C240.257 117.584 242.487 119.298 244.239 121.451Z" fill="black"/>
<path d="M225.225 134.77C225.642 135.121 225.853 135.666 226.237 136.056C226.887 136.615 227.732 136.895 228.588 136.834C230.773 136.868 233.169 135.933 234.037 133.925C234.313 133.193 234.48 132.424 234.532 131.644L235.288 125.012C235.432 123.732 235.677 122.28 236.761 121.579C238.529 120.466 240.875 122.213 242.938 121.762C243.681 121.573 244.325 121.108 244.738 120.461C245.151 119.814 245.303 119.034 245.162 118.279C244.923 117.217 244.111 116.377 243.694 115.364C243.441 114.586 243.239 113.792 243.088 112.988C241.937 108.671 236.872 106.245 232.469 106.968C230.023 107.375 227.749 108.543 225.297 108.899C223.54 109.155 221.744 108.988 219.971 109.177C218.323 109.347 216.721 109.821 215.245 110.574C214.857 110.745 214.515 111.004 214.244 111.33C213.992 111.771 213.823 112.253 213.744 112.755C213.149 114.98 211.236 116.621 209.852 118.496C208.269 120.654 207.352 123.228 207.217 125.902C207.162 126.585 207.226 127.272 207.406 127.933C207.522 128.322 207.706 128.7 207.795 129.101C208.067 130.319 207.445 131.538 207.139 132.751C206.759 134.298 206.896 135.928 207.528 137.391C209.663 142.304 216.696 143.945 218.158 149.103C219.457 149.726 220.859 150.103 222.295 150.215C223.729 150.243 225.275 149.626 225.942 148.351C227.693 145.013 223.512 142.42 222.334 139.772C221.594 138.142 222.423 132.434 225.225 134.77Z" fill="#353045"/>
<path opacity="0.1" d="M365.836 145.124C364.947 147.666 364.569 150.359 364.724 153.047C363.868 153.776 362.933 151.595 361.944 152.157C359.231 153.726 356.095 157.459 352.737 157.459C349.825 157.461 346.954 156.773 344.358 155.451C343.549 152.327 342.432 149.291 341.023 146.387C341.023 146.387 369.627 134.214 365.836 145.124Z" fill="black"/>
<path d="M371.206 138.008C371.206 141.668 370.122 145.246 368.09 148.289C366.058 151.332 363.17 153.704 359.791 155.105C356.412 156.505 352.694 156.872 349.107 156.158C345.52 155.444 342.225 153.681 339.639 151.093C337.053 148.505 335.292 145.208 334.578 141.619C333.865 138.029 334.231 134.308 335.631 130.927C337.03 127.546 339.4 124.655 342.441 122.622C345.482 120.589 349.057 119.503 352.715 119.503C355.143 119.503 357.548 119.981 359.792 120.911C362.036 121.84 364.075 123.203 365.792 124.922C367.509 126.64 368.871 128.681 369.8 130.926C370.729 133.171 371.207 135.578 371.206 138.008Z" fill="#D28690"/>
<path d="M370.417 168.37C370.417 168.37 366.936 172.164 366.464 172.476C365.991 172.787 355.9 215.317 355.723 215.812C355.545 216.307 343.708 254.708 343.708 254.708L324.744 264.038L326.328 217.069L340.228 178.334C340.228 178.334 344.814 173.116 346.232 171.218C347.65 169.321 365.352 157.932 365.352 157.932L368.376 164.169L370.417 168.37Z" fill="#F0F3F7"/>
<path opacity="0.1" d="M367.909 165.12L346.104 180.743L345.754 172.164C347.177 170.267 364.874 158.884 364.874 158.884L367.909 165.12Z" fill="black"/>
<path d="M368.382 164.169L346.577 179.792L346.238 171.218C347.661 169.316 365.357 157.932 365.357 157.932L368.382 164.169Z" fill="#F0F3F7"/>
<path d="M345.509 167.402L346.238 171.218L341.362 176.176L345.254 167.457C345.254 167.457 336.914 173.271 334.412 174.813C331.91 176.354 329.408 181.573 329.314 182.997C329.219 184.421 325.283 205.886 325.283 205.886C325.283 205.886 322.32 213.831 323.154 216.084C323.988 218.338 318.65 289.381 318.65 289.381C319.364 288.001 320.372 286.796 321.604 285.851C322.836 284.905 324.261 284.243 325.778 283.912L323.876 241.928C323.876 241.928 326.189 213.998 326.306 213.642C326.423 213.286 331.699 197.095 331.699 197.095L345.509 167.402Z" fill="#585B8A"/>
<path opacity="0.1" d="M346.716 171.691L346.338 179.481C346.338 179.481 341.062 196.144 339.288 198.87C337.514 201.596 332.116 217.848 332.116 217.848L329.075 246.078L323.86 248.454L321.291 243.719L325.561 216.457C325.561 216.457 333.617 193.451 334.807 191.075L340.75 178.546L346.716 171.691Z" fill="black"/>
<path d="M346.238 171.218L345.865 179.008C345.865 179.008 340.589 195.671 338.81 198.397C337.031 201.123 331.643 217.375 331.643 217.375L328.619 245.6L323.404 247.97L320.796 243.23L325.066 215.967C325.066 215.967 333.122 192.956 334.306 190.586L340.294 178.073L346.238 171.218Z" fill="#663D5C"/>
<path d="M284.769 230.672L294.96 237.733C294.96 237.733 302.149 233.699 297.963 231.09C293.776 228.48 290.062 228.085 288.717 228.085C287.371 228.085 284.769 230.672 284.769 230.672Z" fill="#D28690"/>
<path d="M292.381 217.62C292.153 217.762 291.966 217.959 291.836 218.194C291.707 218.429 291.64 218.693 291.641 218.961C291.641 221.125 291.886 226.856 293.698 224.269C295.922 221.103 295.516 218.26 298.913 220.313C301.025 221.629 302.872 223.327 304.362 225.32L303.417 218.521C303.417 218.521 296.434 215.072 292.381 217.62Z" fill="#D28690"/>
<path opacity="0.1" d="M371.401 300.648C370.889 301.449 370.439 303.201 370.067 305.46C349.284 311.697 334.078 298.511 334.078 298.511C332.239 292.272 330.735 285.939 329.575 279.539C329.203 277.347 329.286 273.096 329.631 267.911L366.786 261.39C366.786 261.39 373.775 296.97 371.401 300.648Z" fill="black"/>
<path d="M392.734 194.497C391.788 197.585 392.144 203.866 392.144 203.866L383.61 244.192C383.61 244.192 379.463 275.266 378.751 279.416C378.039 283.567 376.855 301.833 376.855 301.833C352.676 313.695 334.045 297.565 334.045 297.565C332.206 291.325 330.703 284.989 329.542 278.587C328.352 271.544 331.855 243.324 333.511 230.789C334.006 227.078 334.34 224.742 334.34 224.742L340.561 201.613C340.561 201.613 348.206 182.101 351.052 176.409C353.899 170.718 365.33 157.932 365.33 157.932C366.747 157.031 369.016 160.213 370.7 163.112C371.974 165.304 372.924 167.341 372.924 167.341C372.924 167.341 387.146 173.505 389.276 176.799C391.405 180.093 391.055 186.88 391.294 187.236C391.533 187.593 393.684 191.415 392.734 194.497Z" fill="#585B8A"/>
<path opacity="0.1" d="M359.197 180.148C359.197 180.148 360.265 186.435 357.529 188.332C354.889 190.169 335.229 228.853 334.006 231.268C334.501 227.551 334.835 225.214 334.835 225.214L341.056 202.092C341.056 202.092 348.706 182.58 351.547 176.882C354.388 171.185 365.83 158.405 365.83 158.405C367.248 157.504 369.511 160.686 371.195 163.585C368.654 168.865 363.356 178.846 359.197 180.148Z" fill="black"/>
<path d="M358.725 179.675C358.725 179.675 359.787 185.962 357.057 187.86C354.327 189.757 334.762 228.375 333.523 230.789C334.017 227.078 334.351 224.742 334.351 224.742L340.572 201.613C340.572 201.613 348.217 182.101 351.064 176.409C353.91 170.718 365.341 157.932 365.341 157.932C366.759 157.031 369.027 160.213 370.712 163.112C368.182 168.387 362.878 178.373 358.725 179.675Z" fill="#585B8A"/>
<path d="M386.929 236.487L380.241 271.31V271.315L379.602 274.648V274.654L378.162 282.148L372.018 280.846L369.155 280.24L329.531 271.838L326.617 271.221L319.968 269.813L321.269 261.167L321.808 257.573L326.606 225.693L386.929 236.487Z" fill="#6C63FF"/>
<path d="M349.951 264.951C349.951 264.951 334.19 270.642 337.626 277.402C341.061 284.162 363.106 272.184 363.106 272.184L349.951 264.951Z" fill="#D28690"/>
<path opacity="0.1" d="M361.21 313.455C361.21 313.928 361.805 319.982 364.173 322.112C366.542 324.243 361.21 313.455 361.21 313.455Z" fill="black"/>
<path opacity="0.1" d="M345.331 334.92C345.331 334.92 348.172 342.748 359.431 345.953C370.689 349.158 345.331 334.92 345.331 334.92Z" fill="black"/>
<path opacity="0.1" d="M371.206 138.008C371.207 141.262 370.351 144.457 368.724 147.273C367.097 150.09 364.756 152.427 361.938 154.049C360.876 153.454 359.934 152.667 359.158 151.729C358.352 150.749 357.724 149.414 358.208 148.246C358.597 147.305 359.625 146.71 359.876 145.737C359.994 145.141 359.963 144.526 359.787 143.945C359.581 143.027 359.386 142.109 359.186 141.197C359.014 140.418 358.708 139.5 357.935 139.31C357.162 139.121 356.518 139.767 355.912 140.245C354.427 141.419 351.581 142.215 349.796 141.252C348.011 140.29 348.512 137.068 348.222 135.327C348.219 135.175 348.182 135.027 348.115 134.891C348.048 134.756 347.952 134.637 347.833 134.542C347.574 134.456 347.296 134.437 347.027 134.487C346.065 134.487 345.292 133.624 345.014 132.701C344.818 131.758 344.71 130.798 344.692 129.835C344.586 128.873 344.236 127.855 343.413 127.359C342.756 127.053 342.027 126.934 341.306 127.015L337.82 127.053C340.133 123.925 343.372 121.605 347.078 120.425C350.783 119.244 354.766 119.263 358.461 120.478C362.155 121.693 365.373 124.043 367.656 127.193C369.939 130.343 371.172 134.134 371.179 138.025L371.206 138.008Z" fill="black"/>
<path d="M356.406 140.245C357.012 139.767 357.68 139.132 358.43 139.316C359.181 139.499 359.503 140.429 359.675 141.196L360.276 143.939C360.454 144.522 360.486 145.139 360.37 145.736C360.087 146.716 359.064 147.305 358.669 148.246C358.185 149.414 358.819 150.749 359.62 151.723C361.08 153.484 363.099 154.692 365.341 155.145C365.926 155.285 366.535 155.299 367.126 155.184C368.449 154.878 369.349 153.659 370.061 152.519C373.736 146.788 376.9 140.507 377.544 133.73C377.721 132.348 377.657 130.945 377.355 129.585C377.054 128.528 376.629 127.51 376.088 126.553C375.142 124.597 373.939 122.777 372.513 121.139C369.983 118.413 366.492 116.738 362.906 115.748C358.872 114.628 354.661 114.297 350.502 114.774C349.39 114.902 348.323 115.086 347.227 115.158C345.852 115.222 344.474 115.2 343.102 115.091L334.918 114.602C334.451 115.553 334.918 116.683 335.474 117.573C336.03 118.463 336.719 119.387 336.675 120.444C336.63 121.501 335.88 122.335 335.302 123.226C334.723 124.116 334.284 125.267 334.862 126.135C335.441 127.003 336.619 127.059 337.642 127.048L341.768 127.003C342.486 126.929 343.211 127.055 343.864 127.365C344.686 127.86 345.037 128.884 345.142 129.841C345.165 130.804 345.273 131.762 345.465 132.706C345.748 133.63 346.516 134.503 347.477 134.492C347.747 134.438 348.026 134.46 348.284 134.553C348.402 134.647 348.498 134.765 348.565 134.899C348.632 135.034 348.669 135.182 348.673 135.332C348.962 137.074 348.428 140.29 350.246 141.258C352.064 142.226 354.922 141.419 356.406 140.245Z" fill="#663D5C"/>
<path opacity="0.1" d="M379.907 176.793C377.863 176.576 375.806 177.061 374.073 178.168C372.341 179.275 371.036 180.938 370.372 182.886C368.149 189.223 364.44 200.656 365.369 205.174C366.675 211.578 368.215 222.255 368.215 222.255C368.215 222.255 374.97 226.149 371.551 230.077C368.132 234.005 367.164 239.569 367.164 239.569C367.164 239.569 362.778 241.466 361.833 245.5C360.887 249.534 354.483 255.103 354.483 255.103L344.887 264.711C344.887 264.711 360.765 280.846 363.968 281.67L373.803 270.164L385.417 254.747L395.491 244.176C395.491 244.176 397.86 238.612 396.675 228.041C395.491 217.47 390.866 207.405 390.866 207.405L391.221 203.844C391.221 203.844 392.311 178.334 379.907 176.793Z" fill="black"/>
<path d="M380.853 176.793C378.81 176.579 376.755 177.065 375.025 178.171C373.295 179.278 371.992 180.94 371.329 182.886C369.105 189.223 365.397 200.656 366.325 205.174C367.626 211.578 369.166 222.255 369.166 222.255C369.166 222.255 375.921 226.149 372.502 230.077C369.083 234.005 368.121 239.569 368.121 239.569C368.121 239.569 363.734 241.466 362.783 245.5C361.833 249.534 355.439 255.103 355.439 255.103L345.837 264.711C345.837 264.711 361.716 280.846 364.918 281.67L374.754 270.164L386.34 254.747L396.414 244.176C396.414 244.176 398.788 238.612 397.598 228.041C396.409 217.47 391.794 207.405 391.794 207.405L392.15 203.844C392.15 203.844 393.256 178.334 380.853 176.793Z" fill="#585B8A"/>
<path opacity="0.1" d="M370.928 212.885C370.928 212.885 381.003 225.214 385.273 222.488C389.542 219.762 370.928 212.885 370.928 212.885Z" fill="black"/>
<path opacity="0.1" d="M374.72 203.393C375.788 203.75 384.561 215.967 389.064 214.521C393.568 213.074 374.72 203.393 374.72 203.393Z" fill="black"/>
<path opacity="0.1" d="M377.211 224.38C377.211 224.38 377.806 231.379 385.033 230.428C392.261 229.476 377.211 224.38 377.211 224.38Z" fill="black"/>
<path opacity="0.1" d="M345.27 167.93L341.362 176.649L346.243 171.691L345.27 167.93Z" fill="black"/>
<path d="M345.27 167.457L341.362 176.176L346.243 171.218L345.27 167.457Z" fill="#F0F3F7"/>
<path opacity="0.3" d="M329.531 271.839L326.617 271.221L321.269 261.167L321.808 257.573L329.531 271.839Z" fill="black"/>
<path opacity="0.3" d="M380.241 271.316L379.602 274.648V274.654L372.018 280.846L369.155 280.24L380.241 271.316Z" fill="black"/>
<path opacity="0.1" d="M260.757 232.408C259.289 232.653 257.866 232.876 256.565 233.043C249.337 233.994 232.146 225.454 232.146 225.454C232.146 225.454 211.17 207.9 205.126 191.298C199.083 174.696 212.354 172.203 212.354 172.203C217.358 169.355 228.238 177.3 229.778 178.607C231.318 179.915 232.625 183.231 232.502 185.367C232.38 187.503 236.06 190.23 236.06 190.23C236.06 190.23 242.343 201.14 243.883 202.325C245.423 203.51 245.779 204.579 246.251 206.598C246.724 208.618 250.872 210.276 252.651 210.153C254.43 210.031 256.542 210.749 256.542 211.695C256.542 212.457 258.283 212.835 259.712 212.958C260.134 219.039 260.551 227.006 260.757 232.408Z" fill="black"/>
<path opacity="0.1" d="M260.69 230.673C259.578 230.851 258.511 231.012 257.51 231.145C250.282 232.097 233.097 223.556 233.097 223.556C233.097 223.556 212.12 206.003 206.077 189.401C200.033 172.799 213.304 170.306 213.304 170.306C218.308 167.457 229.183 175.402 230.723 176.71C232.263 178.017 233.57 181.333 233.453 183.47C233.336 185.606 237.006 188.332 237.006 188.332C237.006 188.332 243.288 199.243 244.828 200.428C246.368 201.613 246.724 202.681 247.202 204.701C247.68 206.721 251.822 208.373 253.601 208.256C255.381 208.139 257.493 208.852 257.493 209.797C257.493 210.354 258.483 210.727 259.584 210.91C259.628 211.556 259.667 212.24 259.717 212.952C260.084 218.421 260.462 225.398 260.69 230.673Z" fill="black"/>
<path opacity="0.1" d="M288.183 218.727L287.733 229.387H287.249L286.248 228.831L286.37 219.645C286.955 219.301 287.56 218.995 288.183 218.727Z" fill="black"/>
<path d="M212.354 171.252C212.354 171.252 199.083 173.744 205.126 190.347C211.17 206.949 232.146 224.508 232.146 224.508C232.146 224.508 249.332 233.043 256.565 232.097C263.798 231.151 274.812 228.658 276.235 229.015C277.658 229.371 287.26 229.371 287.26 229.371L287.733 218.243L276.613 217.648L270.926 216.463C270.926 216.463 268.907 214.794 267.723 215.038C266.539 215.283 264.054 213.614 264.054 213.614C264.054 213.614 262.152 212.073 260.718 212.073C259.283 212.073 256.57 211.717 256.57 210.771C256.57 209.825 254.435 209.102 252.678 209.23C250.922 209.358 246.724 207.689 246.235 205.647C245.746 203.605 245.406 202.565 243.866 201.379C242.326 200.194 236.044 189.278 236.044 189.278C236.044 189.278 232.369 186.552 232.486 184.421C232.602 182.29 231.301 178.963 229.761 177.656C228.221 176.348 217.324 168.409 212.354 171.252Z" fill="#DCE6F2"/>
<path opacity="0.1" d="M246.491 209.441C246.491 209.441 241.392 214.543 242.693 215.489L246.491 209.441Z" fill="black"/>
<path opacity="0.1" d="M251.939 213.475C251.939 213.475 245.301 218.577 247.08 218.933C248.859 219.289 251.939 213.475 251.939 213.475Z" fill="black"/>
<path opacity="0.1" d="M240.675 221.042C241.626 221.52 255.725 229.944 261.063 229.821L240.675 221.042Z" fill="black"/>
<path opacity="0.1" d="M241.631 164.731C241.631 164.731 239.141 172.915 238.19 172.915C237.445 172.915 224.936 162.778 219.715 158.516L219.943 158.327C219.943 158.327 220.415 154.65 222.311 152.764C224.207 150.877 241.631 164.731 241.631 164.731Z" fill="black"/>
<path d="M241.153 163.78C241.153 163.78 238.668 171.964 237.717 171.964C236.967 171.964 224.457 161.827 219.237 157.565L219.465 157.376C219.465 157.376 219.943 153.698 221.839 151.812C223.735 149.926 241.153 163.78 241.153 163.78Z" fill="#DCE6F2"/>
<g opacity="0.15">
<path opacity="0.15" d="M207.589 137.33C209.257 141.141 213.849 142.988 216.512 146.026C214.928 142.293 210.297 140.462 207.589 137.33Z" fill="black"/>
<path opacity="0.15" d="M224.585 146.109C223.924 147.383 222.361 148.001 220.938 147.973C219.673 147.882 218.434 147.566 217.28 147.038C217.698 147.656 218.017 148.336 218.225 149.052C219.523 149.677 220.925 150.054 222.361 150.165C223.801 150.199 225.347 149.581 226.008 148.301C227.07 146.271 225.964 144.535 224.669 142.893C224.91 143.398 225.028 143.952 225.014 144.511C224.999 145.07 224.852 145.618 224.585 146.109Z" fill="black"/>
<path opacity="0.15" d="M245.217 118.224C244.978 117.156 244.167 116.315 243.75 115.308C243.494 114.529 243.292 113.734 243.144 112.927C242.828 111.787 242.242 110.739 241.437 109.873C241.549 110.147 241.643 110.427 241.72 110.713C241.876 111.523 242.084 112.322 242.343 113.105C242.76 114.112 243.572 114.952 243.811 116.021C243.952 116.775 243.8 117.555 243.387 118.202C242.974 118.849 242.33 119.314 241.587 119.504C239.53 119.954 237.184 118.174 235.416 119.32C234.331 120.015 234.081 121.467 233.937 122.747C233.688 124.973 233.436 127.185 233.181 129.385C233.13 130.165 232.965 130.934 232.691 131.666C231.818 133.669 229.422 134.609 227.237 134.576C226.383 134.633 225.541 134.353 224.891 133.797C224.575 133.349 224.235 132.918 223.874 132.506C221.094 130.169 220.249 135.883 220.982 137.513C221.35 138.247 221.806 138.932 222.339 139.555C221.727 137.719 222.584 132.434 225.297 134.698C225.658 135.109 225.996 135.54 226.309 135.989C226.962 136.545 227.805 136.824 228.66 136.768C230.845 136.801 233.242 135.861 234.115 133.858C234.389 133.124 234.554 132.353 234.604 131.571C234.856 129.346 235.108 127.135 235.36 124.939C235.505 123.66 235.755 122.207 236.833 121.512C238.607 120.366 240.953 122.146 243.01 121.69C243.748 121.499 244.386 121.035 244.795 120.392C245.205 119.748 245.356 118.974 245.217 118.224Z" fill="black"/>
</g>
<path opacity="0.1" d="M368.31 153.765C367.718 153.875 367.11 153.86 366.525 153.72C364.286 153.268 362.269 152.062 360.81 150.304C360.003 149.325 359.37 147.99 359.859 146.821C360.248 145.881 361.271 145.291 361.527 144.312C361.642 143.714 361.61 143.097 361.432 142.515L360.832 139.772C360.66 138.993 360.359 138.075 359.587 137.892C358.814 137.708 358.169 138.342 357.563 138.821C356.078 139.995 353.226 140.796 351.447 139.828C349.668 138.86 350.163 135.644 349.874 133.902C349.869 133.752 349.832 133.605 349.764 133.47C349.697 133.336 349.602 133.217 349.484 133.123C349.224 133.033 348.944 133.012 348.673 133.062C347.711 133.062 346.944 132.2 346.66 131.276C346.467 130.333 346.361 129.374 346.343 128.411C346.232 127.454 345.887 126.43 345.059 125.935C344.406 125.627 343.681 125.502 342.963 125.573L338.838 125.618C337.82 125.618 336.614 125.551 336.058 124.706C335.502 123.86 335.913 122.658 336.497 121.796C337.081 120.933 337.82 120.076 337.87 119.014C337.92 117.951 337.231 117.033 336.669 116.143C336.347 115.656 336.11 115.118 335.969 114.552L334.785 114.479C334.323 115.425 334.785 116.555 335.341 117.45C335.896 118.346 336.591 119.264 336.541 120.316C336.491 121.367 335.752 122.213 335.168 123.098C334.584 123.982 334.156 125.139 334.734 126.007C335.313 126.875 336.486 126.937 337.514 126.925L341.64 126.875C342.359 126.806 343.083 126.933 343.736 127.243C344.564 127.738 344.914 128.761 345.02 129.718C345.038 130.682 345.146 131.641 345.342 132.584C345.62 133.502 346.393 134.381 347.355 134.364C347.625 134.316 347.902 134.337 348.161 134.425C348.279 134.52 348.375 134.639 348.442 134.775C348.509 134.91 348.546 135.059 348.55 135.21C348.84 136.946 348.306 140.167 350.124 141.135C351.942 142.103 354.777 141.302 356.24 140.128C356.846 139.65 357.518 139.015 358.269 139.193C359.019 139.372 359.342 140.306 359.509 141.074L360.115 143.823C360.291 144.405 360.321 145.022 360.204 145.62C359.926 146.593 358.897 147.189 358.508 148.123C358.024 149.292 358.652 150.633 359.459 151.606C360.928 153.372 362.96 154.578 365.213 155.022C365.798 155.162 366.406 155.177 366.998 155.067C367.953 154.775 368.774 154.152 369.31 153.309C369.007 153.519 368.668 153.674 368.31 153.765Z" fill="black"/>
<path opacity="0.1" d="M113.246 399.482C120.668 399.482 126.684 398.558 126.684 397.418C126.684 396.278 120.668 395.354 113.246 395.354C105.825 395.354 99.8082 396.278 99.8082 397.418C99.8082 398.558 105.825 399.482 113.246 399.482Z" fill="#6C63FF"/>
<path opacity="0.1" d="M582.443 345.814C589.864 345.814 595.881 344.89 595.881 343.75C595.881 342.61 589.864 341.686 582.443 341.686C575.021 341.686 569.005 342.61 569.005 343.75C569.005 344.89 575.021 345.814 582.443 345.814Z" fill="#6C63FF"/>
<path opacity="0.1" d="M445.445 432.903C466.939 432.903 484.364 430.228 484.364 426.928C484.364 423.627 466.939 420.952 445.445 420.952C423.952 420.952 406.527 423.627 406.527 426.928C406.527 430.228 423.952 432.903 445.445 432.903Z" fill="#6C63FF"/>
<path opacity="0.1" d="M556.079 406.275C572.844 406.275 586.435 404.188 586.435 401.613C586.435 399.038 572.844 396.95 556.079 396.95C539.313 396.95 525.722 399.038 525.722 401.613C525.722 404.188 539.313 406.275 556.079 406.275Z" fill="#6C63FF"/>
<path opacity="0.1" d="M551.08 455.976C579.511 455.976 602.558 452.436 602.558 448.07C602.558 443.704 579.511 440.164 551.08 440.164C522.65 440.164 499.603 443.704 499.603 448.07C499.603 452.436 522.65 455.976 551.08 455.976Z" fill="#6C63FF"/>
<path opacity="0.1" d="M55.7307 461C77.2246 461 94.6488 458.325 94.6488 455.025C94.6488 451.724 77.2246 449.049 55.7307 449.049C34.2368 449.049 16.8126 451.724 16.8126 455.025C16.8126 458.325 34.2368 461 55.7307 461Z" fill="#6C63FF"/>
<path d="M113.858 331.677C113.858 331.677 115.381 333.668 113.157 336.684C110.933 339.699 109.099 342.248 109.821 344.106C109.821 344.106 113.157 338.542 115.937 338.442C118.717 338.342 116.865 335.037 113.858 331.677Z" fill="#6C63FF"/>
<path opacity="0.1" d="M113.858 331.677C113.993 331.867 114.099 332.077 114.169 332.3C116.838 335.438 118.255 338.359 115.692 338.42C113.307 338.487 110.444 342.759 109.76 343.839C109.781 343.922 109.807 344.004 109.838 344.084C109.838 344.084 113.174 338.52 115.954 338.42C118.734 338.32 116.865 335.037 113.858 331.677Z" fill="black"/>
<path d="M116.693 334.214C116.693 334.915 116.61 335.482 116.515 335.482C116.421 335.482 116.337 334.926 116.337 334.214C116.337 333.501 116.437 333.846 116.532 333.846C116.626 333.846 116.693 333.513 116.693 334.214Z" fill="#FFD037"/>
<path d="M117.66 335.054C117.049 335.388 116.51 335.61 116.465 335.504C116.421 335.399 116.877 335.082 117.494 334.742C118.111 334.403 117.866 334.653 117.911 334.742C117.955 334.831 118.278 334.714 117.66 335.054Z" fill="#FFD037"/>
<path d="M105.818 331.677C105.818 331.677 104.295 333.668 106.519 336.684C108.743 339.699 110.583 342.248 109.855 344.106C109.855 344.106 106.519 338.542 103.767 338.442C101.015 338.342 102.794 335.037 105.818 331.677Z" fill="#6C63FF"/>
<path opacity="0.1" d="M105.818 331.677C105.685 331.868 105.581 332.078 105.507 332.3C102.838 335.438 101.421 338.359 103.984 338.42C106.369 338.487 109.232 342.759 109.921 343.839C109.899 343.922 109.871 344.004 109.838 344.084C109.838 344.084 106.502 338.52 103.75 338.42C100.998 338.32 102.794 335.037 105.818 331.677Z" fill="black"/>
<path d="M102.988 334.214C102.988 334.915 103.066 335.482 103.161 335.482C103.255 335.482 103.339 334.926 103.339 334.214C103.339 333.501 103.239 333.846 103.144 333.846C103.05 333.846 102.988 333.513 102.988 334.214Z" fill="#FFD037"/>
<path d="M102.015 335.054C102.633 335.388 103.166 335.61 103.216 335.504C103.266 335.399 102.799 335.082 102.182 334.742C101.565 334.403 101.81 334.653 101.765 334.742C101.721 334.831 101.398 334.714 102.015 335.054Z" fill="#FFD037"/>
<path opacity="0.1" d="M109.838 359.339C118.629 359.339 125.756 358.246 125.756 356.897C125.756 355.548 118.629 354.454 109.838 354.454C101.047 354.454 93.9205 355.548 93.9205 356.897C93.9205 358.246 101.047 359.339 109.838 359.339Z" fill="#6C63FF"/>
<path d="M118.033 341.413L117.955 342.036L117.85 342.915L117.805 343.282L117.699 344.162L117.649 344.529L117.544 345.408L116.326 355.423C116.221 356.313 114.764 357.008 112.99 357.008H106.686C104.929 357.008 103.472 356.313 103.35 355.423L102.132 345.408L102.027 344.529L101.982 344.162L101.871 343.282L101.826 342.915L101.721 342.036L101.643 341.413C101.582 340.907 102.371 340.484 103.366 340.484H116.315C117.305 340.484 118.094 340.907 118.033 341.413Z" fill="#65617D"/>
<path d="M117.955 342.036L117.85 342.915H101.826L101.721 342.036H117.955Z" fill="#9D9CB5"/>
<path d="M117.805 343.282L117.699 344.162H101.982L101.871 343.282H117.805Z" fill="#9D9CB5"/>
<path d="M117.655 344.529L117.544 345.408H102.132L102.027 344.529H117.655Z" fill="#9D9CB5"/>
<path d="M571.851 323.971C571.851 323.971 569.95 332.828 578.406 333.874L578.929 332.889C578.929 332.889 572.374 326.719 571.851 323.971Z" fill="#6C63FF"/>
<path d="M581.62 332.817L579.652 333.234L579.457 333.279C579.457 333.279 574.209 329.017 574.276 319.503C574.977 320.906 575.817 322.235 576.783 323.47C578.862 326.224 581.225 329.896 581.62 332.817Z" fill="#6C63FF"/>
<path d="M582.281 333.73C582.127 333.83 581.952 333.895 581.769 333.919C581.586 333.943 581.4 333.926 581.225 333.869C576.177 332.689 577.889 316.226 577.889 316.226C578.167 316.354 578.445 318.452 579.635 321.156C581.664 325.901 583.905 332.539 582.281 333.73Z" fill="#6C63FF"/>
<path d="M593.479 323.971C593.479 323.971 593.807 332.828 585.35 333.874L584.822 332.873C584.822 332.873 592.956 326.719 593.479 323.971Z" fill="#6C63FF"/>
<path d="M591.055 319.52C591.121 329.034 584.305 333.296 584.305 333.296L584.105 333.251L582.142 332.834C582.532 329.913 584.922 326.241 586.974 323.487C588.152 321.988 589.524 320.654 591.055 319.52Z" fill="#6C63FF"/>
<path d="M584.077 332.873C583.778 333.242 583.398 333.538 582.965 333.735C582.831 333.795 582.692 333.842 582.548 333.874C581.308 334.163 580.88 333.268 580.947 331.743C581.064 329.034 582.765 324.332 584.283 320.811C585.014 319.083 586.093 317.524 587.452 316.232C587.452 316.232 587.374 329.045 584.077 332.873Z" fill="#6C63FF"/>
<path d="M582.665 310.451C582.665 310.451 577.027 330.48 581.881 333.474C586.735 336.467 583.91 312.22 582.665 310.451Z" fill="#6C63FF"/>
<path opacity="0.1" d="M571.851 323.971C571.851 323.971 569.95 332.828 578.406 333.874L578.929 332.889C578.929 332.889 572.374 326.719 571.851 323.971Z" fill="black"/>
<path opacity="0.1" d="M581.62 332.817L579.652 333.234L579.457 333.279C579.457 333.279 574.209 329.017 574.276 319.503C574.977 320.906 575.817 322.235 576.783 323.47C578.862 326.224 581.225 329.896 581.62 332.817Z" fill="black"/>
<path opacity="0.1" d="M582.281 333.73C582.127 333.83 581.952 333.895 581.769 333.919C581.586 333.943 581.4 333.926 581.225 333.869C576.177 332.689 577.889 316.226 577.889 316.226C578.167 316.354 578.445 318.452 579.635 321.156C581.664 325.901 583.905 332.539 582.281 333.73Z" fill="black"/>
<path opacity="0.1" d="M593.479 323.971C593.479 323.971 593.807 332.828 585.35 333.874L584.822 332.873C584.822 332.873 592.956 326.719 593.479 323.971Z" fill="black"/>
<path opacity="0.1" d="M591.055 319.52C591.121 329.034 584.305 333.296 584.305 333.296L584.105 333.251L582.142 332.834C582.532 329.913 584.922 326.241 586.974 323.487C588.152 321.988 589.524 320.654 591.055 319.52Z" fill="black"/>
<path opacity="0.1" d="M584.077 332.873C583.778 333.242 583.398 333.538 582.965 333.735C582.831 333.795 582.692 333.842 582.548 333.874C581.308 334.163 580.88 333.268 580.947 331.743C581.064 329.034 582.765 324.332 584.283 320.811C585.014 319.083 586.093 317.524 587.452 316.232C587.452 316.232 587.374 329.045 584.077 332.873Z" fill="black"/>
<path opacity="0.1" d="M582.665 310.451C582.665 310.451 577.027 330.48 581.881 333.474C586.735 336.467 583.91 312.22 582.665 310.451Z" fill="black"/>
<path d="M571.851 323.971C571.851 323.971 570.74 332.828 579.19 333.874L579.713 332.889C579.713 332.889 572.374 326.719 571.851 323.971Z" fill="#6C63FF"/>
<path d="M582.404 332.817L580.436 333.234L580.241 333.279C580.241 333.279 574.209 329.017 574.259 319.52C574.259 319.52 575.804 321.189 577.55 323.487C579.646 326.224 582.009 329.896 582.404 332.817Z" fill="#6C63FF"/>
<path opacity="0.1" d="M582.404 332.817L580.436 333.234C578.573 331.599 577.834 327.326 577.567 323.47C579.646 326.224 582.009 329.896 582.404 332.817Z" fill="black"/>
<path d="M583.071 333.73C582.915 333.83 582.739 333.895 582.556 333.919C582.372 333.943 582.185 333.926 582.009 333.869C576.961 332.689 577.884 316.226 577.884 316.226C578.162 316.354 579.251 318.452 580.413 321.156C582.454 325.901 584.689 332.539 583.071 333.73Z" fill="#6C63FF"/>
<path d="M593.479 323.971C593.479 323.971 594.591 332.828 586.14 333.874L585.617 332.889C585.617 332.889 592.956 326.719 593.479 323.971Z" fill="#6C63FF"/>
<path d="M591.055 319.52C591.121 329.034 585.089 333.296 585.089 333.296L584.894 333.251L582.926 332.834C583.315 329.913 585.706 326.241 587.763 323.487C589.509 321.189 591.055 319.52 591.055 319.52Z" fill="#6C63FF"/>
<path opacity="0.1" d="M587.763 323.47C587.508 327.064 586.851 331.02 585.256 332.867C585.147 333 585.026 333.123 584.894 333.234L582.926 332.817C583.315 329.896 585.684 326.224 587.763 323.47Z" fill="black"/>
<path d="M584.861 332.873C584.564 333.244 584.183 333.54 583.749 333.735C583.617 333.795 583.479 333.841 583.338 333.874C582.092 334.163 581.67 333.268 581.731 331.743C581.853 329.034 583.555 324.332 585.067 320.811C586.179 318.279 587.185 316.36 587.452 316.232C587.452 316.226 588.158 329.045 584.861 332.873Z" fill="#6C63FF"/>
<path opacity="0.1" d="M583.071 333.73C582.783 333.733 582.503 333.643 582.27 333.474C579.896 331.994 579.846 326.441 580.413 321.156C582.454 325.901 584.689 332.539 583.071 333.73Z" fill="black"/>
<path opacity="0.1" d="M584.861 332.873C584.589 333.468 584.222 333.78 583.749 333.735C583.507 333.706 583.277 333.618 583.076 333.479C582.458 333.055 581.987 332.448 581.731 331.743C581.853 329.034 583.555 324.332 585.067 320.811C585.612 325.69 585.795 330.864 584.861 332.873Z" fill="black"/>
<path d="M582.665 310.451C582.665 310.451 577.817 330.48 582.665 333.474C587.513 336.467 583.91 312.22 582.665 310.451Z" fill="#6C63FF"/>
<path d="M591.972 332.494H571.785V335.838H574.865L574.943 336.233L576.177 342.726H587.913L589.148 336.233L589.22 335.838H591.972V332.494Z" fill="#4B4770"/>
<path opacity="0.1" d="M591.972 332.494H571.785V335.838H574.865L574.943 336.233L576.177 342.726H587.913L589.148 336.233L589.22 335.838H591.972V332.494Z" fill="black"/>
<path d="M590.271 334.458L589.932 336.233L588.697 342.726H576.961L575.727 336.233L575.387 334.458H590.271Z" fill="#4B4770"/>
<path opacity="0.1" d="M590.271 334.458L589.932 336.233H575.727L575.387 334.458H590.271Z" fill="black"/>
<path d="M592.756 332.494H572.569V335.838H592.756V332.494Z" fill="#4B4770"/>
<path d="M77.497 389.712C76.9648 390.446 76.5381 391.251 76.2294 392.104C76.1515 392.31 76.0737 392.549 75.9959 392.777C75.8548 392.712 75.7077 392.659 75.5566 392.622C74.9086 392.458 74.2381 392.401 73.5718 392.455C73.5718 392.193 73.6052 391.898 73.6107 391.637C73.6941 388.705 73.3494 384.621 70.5529 386.351C67.8731 388.02 69.7857 390.802 71.5147 392.583C71.6648 392.739 71.8149 392.883 71.9595 393.022C70.3805 394.135 70.0803 396.767 69.819 399.498C69.5577 402.23 67.2393 405.218 65.6992 406.915C65.5436 407.087 65.4046 407.243 65.2656 407.388C64.6431 406.891 63.9224 406.531 63.151 406.332C62.3796 406.134 61.575 406.101 60.79 406.236C60.7289 405.997 60.6566 405.747 60.5843 405.485C59.3389 400.984 56.7536 393.189 53.4567 391.481L53.8904 390.925C55.2914 389.094 56.8704 386.368 54.5409 385.673C52.2114 384.977 52.0001 388.032 52.128 390.324C52.1502 390.613 52.1724 390.886 52.1947 391.142C51.729 391.163 51.2726 391.28 50.8537 391.484C50.4349 391.689 50.0625 391.978 49.7595 392.332L49.3981 391.904C47.5078 389.678 44.0441 386.134 42.9933 388.81C42.0148 391.303 45.0671 394.541 47.2132 396.416L47.3466 396.533C45.9066 402.38 52.1947 407.149 55.5805 409.235L56.0198 409.502C51.3496 415.01 48.4641 425.336 48.4641 425.336L61.5406 427.673C61.5406 427.673 70.2137 420.184 69.1018 413.152H69.1908C77.8584 411.416 79.8265 402.169 78.4755 396.678L78.6312 396.616C80.2104 395.97 81.5939 394.923 82.6453 393.579C85.0693 390.213 79.9989 386.407 77.497 389.712Z" fill="#6C63FF"/>
<path opacity="0.1" d="M77.497 389.712C76.9648 390.446 76.5381 391.251 76.2294 392.104C76.1515 392.31 76.0737 392.549 75.9959 392.777C75.8548 392.712 75.7077 392.659 75.5566 392.622C74.9086 392.458 74.2381 392.401 73.5718 392.455C73.5718 392.193 73.6052 391.898 73.6107 391.637C73.6941 388.705 73.3494 384.621 70.5529 386.351C67.8731 388.02 69.7857 390.802 71.5147 392.583C71.6648 392.739 71.8149 392.883 71.9595 393.022C70.3805 394.135 70.0803 396.767 69.819 399.498C69.5577 402.23 67.2393 405.218 65.6992 406.915C65.5436 407.087 65.4046 407.243 65.2656 407.388C64.6431 406.891 63.9224 406.531 63.151 406.332C62.3796 406.134 61.575 406.101 60.79 406.236C60.7289 405.997 60.6566 405.747 60.5843 405.485C59.3389 400.984 56.7536 393.189 53.4567 391.481L53.8904 390.925C55.2914 389.094 56.8704 386.368 54.5409 385.673C52.2114 384.977 52.0001 388.032 52.128 390.324C52.1502 390.613 52.1724 390.886 52.1947 391.142C51.729 391.163 51.2726 391.28 50.8537 391.484C50.4349 391.689 50.0625 391.978 49.7595 392.332L49.3981 391.904C47.5078 389.678 44.0441 386.134 42.9933 388.81C42.0148 391.303 45.0671 394.541 47.2132 396.416L47.3466 396.533C45.9066 402.38 52.1947 407.149 55.5805 409.235L56.0198 409.502C51.3496 415.01 48.4641 425.336 48.4641 425.336L61.5406 427.673C61.5406 427.673 70.2137 420.184 69.1018 413.152H69.1908C77.8584 411.416 79.8265 402.169 78.4755 396.678L78.6312 396.616C80.2104 395.97 81.5939 394.923 82.6453 393.579C85.0693 390.213 79.9989 386.407 77.497 389.712Z" fill="black"/>
<path d="M51.4664 393.517L49.9375 397.968C49.9375 397.968 49.0868 397.368 48.0138 396.422C45.8678 394.547 42.8155 391.309 43.794 388.816C44.8448 386.14 48.3085 389.673 50.1988 391.909C50.9605 392.8 51.4664 393.517 51.4664 393.517Z" fill="#6C63FF"/>
<path d="M54.691 390.93C54.2265 391.543 53.7291 392.13 53.201 392.688C53.0705 391.907 52.9795 391.12 52.9286 390.329C52.8007 388.037 53.0453 384.994 55.3415 385.678C57.6376 386.362 56.092 389.1 54.691 390.93Z" fill="#6C63FF"/>
<path d="M74.4392 391.637C74.3947 393.111 74.2501 394.291 74.2501 394.291C73.5776 393.764 72.9406 393.193 72.3431 392.583C70.6141 390.786 68.7015 388.015 71.3813 386.351C74.1501 384.615 74.4948 388.705 74.4392 391.637Z" fill="#6C63FF"/>
<path d="M83.446 393.567C82.3945 394.912 81.011 395.959 79.4318 396.605C78.9935 396.795 78.5442 396.959 78.0864 397.095L76.285 394.563C76.4742 393.727 76.7231 392.905 77.03 392.104C77.3388 391.251 77.7654 390.446 78.2977 389.712C80.7884 386.407 85.87 390.213 83.446 393.567Z" fill="#6C63FF"/>
<path opacity="0.1" d="M50.1988 391.91C50.9604 392.8 51.4664 393.49 51.4664 393.49L49.9375 397.941C49.9375 397.941 49.0868 397.34 48.0138 396.394C48.2522 394.96 48.8446 393.608 49.7373 392.46C49.8874 392.277 50.0487 392.088 50.1988 391.91Z" fill="black"/>
<path opacity="0.1" d="M54.691 390.93C54.2266 391.543 53.7292 392.13 53.201 392.688C53.0705 391.907 52.9796 391.12 52.9286 390.329C53.564 390.343 54.1797 390.552 54.691 390.93Z" fill="black"/>
<path d="M62.2078 408.712L58.4049 410.381C58.4049 410.381 57.5765 409.981 56.3812 409.235C52.3838 406.776 44.3499 400.583 49.7095 393.284C55.0691 385.984 59.5892 399.076 61.385 405.479C61.9242 407.427 62.2078 408.712 62.2078 408.712Z" fill="#6C63FF"/>
<path opacity="0.1" d="M72.3154 392.583C72.8686 392.012 73.618 391.674 74.4115 391.637C74.367 393.111 74.2224 394.291 74.2224 394.291C73.5499 393.764 72.9129 393.194 72.3154 392.583Z" fill="black"/>
<path opacity="0.1" d="M79.443 396.605C79.0046 396.795 78.5553 396.959 78.0975 397.095L76.2961 394.563C76.4853 393.727 76.7343 392.905 77.0411 392.104C78.192 392.783 79.0482 394.474 79.443 396.605Z" fill="black"/>
<path d="M69.9914 413.141C69.7857 413.185 69.5689 413.224 69.3521 413.258C56.6036 415.194 65.1489 408.311 65.1489 408.311C65.1489 408.311 65.7049 407.755 66.4999 406.915C68.04 405.218 70.3528 402.247 70.6197 399.498C71.02 395.365 71.4814 391.487 76.3573 392.622C81.1442 393.746 82.0616 410.72 69.9914 413.141Z" fill="#6C63FF"/>
<path d="M69.7523 444.904H45.3951V451.313H69.7523V444.904Z" fill="#D4DFEC"/>
<path d="M73.3495 424.073H41.5256V446.44H73.3495V424.073Z" fill="#D4DFEC"/>
<path opacity="0.1" d="M69.7523 444.904H45.3951V451.313H69.7523V444.904Z" fill="black"/>
<path opacity="0.1" d="M73.3495 424.073H41.5256V446.44H73.3495V424.073Z" fill="black"/>
<path d="M71.3535 444.904H46.9963V451.313H71.3535V444.904Z" fill="#D4DFEC"/>
<path opacity="0.1" d="M61.385 405.485C61.941 407.399 62.2078 408.712 62.2078 408.712L58.405 410.381C58.405 410.381 57.5766 409.98 56.3812 409.235C57.8712 407.349 59.5503 405.925 61.385 405.485Z" fill="black"/>
<path opacity="0.1" d="M69.9914 413.141C69.7857 413.185 69.5689 413.224 69.3521 413.258C56.6036 415.194 65.1489 408.311 65.1489 408.311C65.1489 408.311 65.7049 407.755 66.4999 406.915C68.8795 408.823 69.8635 410.971 69.9914 413.141Z" fill="black"/>
<path d="M49.2648 425.342C49.2648 425.342 56.4035 399.749 66.4165 407.644C76.4296 415.539 62.3413 427.673 62.3413 427.673L49.2648 425.342Z" fill="#6C63FF"/>
<path opacity="0.1" d="M52.8675 398.096C53.3097 398.096 53.6681 397.738 53.6681 397.295C53.6681 396.853 53.3097 396.494 52.8675 396.494C52.4253 396.494 52.0669 396.853 52.0669 397.295C52.0669 397.738 52.4253 398.096 52.8675 398.096Z" fill="black"/>
<path opacity="0.1" d="M52.8007 401.835C53.2429 401.835 53.6013 401.477 53.6013 401.034C53.6013 400.592 53.2429 400.233 52.8007 400.233C52.3586 400.233 52.0001 400.592 52.0001 401.034C52.0001 401.477 52.3586 401.835 52.8007 401.835Z" fill="black"/>
<path opacity="0.1" d="M76.0237 398.831C76.4659 398.831 76.8243 398.472 76.8243 398.03C76.8243 397.587 76.4659 397.229 76.0237 397.229C75.5816 397.229 75.2231 397.587 75.2231 398.03C75.2231 398.472 75.5816 398.831 76.0237 398.831Z" fill="black"/>
<path opacity="0.1" d="M57.3431 417.998C57.7852 417.998 58.1437 417.639 58.1437 417.197C58.1437 416.754 57.7852 416.396 57.3431 416.396C56.9009 416.396 56.5425 416.754 56.5425 417.197C56.5425 417.639 56.9009 417.998 57.3431 417.998Z" fill="black"/>
<path opacity="0.1" d="M74.3558 405.04C74.7979 405.04 75.1564 404.681 75.1564 404.239C75.1564 403.796 74.7979 403.438 74.3558 403.438C73.9136 403.438 73.5552 403.796 73.5552 404.239C73.5552 404.681 73.9136 405.04 74.3558 405.04Z" fill="black"/>
<path opacity="0.1" d="M66.083 413.324C66.5251 413.324 66.8836 412.966 66.8836 412.523C66.8836 412.081 66.5251 411.722 66.083 411.722C65.6408 411.722 65.2823 412.081 65.2823 412.523C65.2823 412.966 65.6408 413.324 66.083 413.324Z" fill="black"/>
<path opacity="0.1" d="M55.6028 399.699C56.045 399.699 56.4034 399.34 56.4034 398.898C56.4034 398.455 56.045 398.096 55.6028 398.096C55.1607 398.096 54.8022 398.455 54.8022 398.898C54.8022 399.34 55.1607 399.699 55.6028 399.699Z" fill="black"/>
<path opacity="0.1" d="M73.8221 401.234C74.2642 401.234 74.6227 400.876 74.6227 400.433C74.6227 399.991 74.2642 399.632 73.8221 399.632C73.3799 399.632 73.0215 399.991 73.0215 400.433C73.0215 400.876 73.3799 401.234 73.8221 401.234Z" fill="black"/>
<path opacity="0.1" d="M71.0866 407.443C71.5288 407.443 71.8872 407.085 71.8872 406.642C71.8872 406.2 71.5288 405.841 71.0866 405.841C70.6445 405.841 70.286 406.2 70.286 406.642C70.286 407.085 70.6445 407.443 71.0866 407.443Z" fill="black"/>
<path opacity="0.1" d="M62.6804 417.397C63.1225 417.397 63.481 417.038 63.481 416.596C63.481 416.153 63.1225 415.795 62.6804 415.795C62.2382 415.795 61.8798 416.153 61.8798 416.596C61.8798 417.038 62.2382 417.397 62.6804 417.397Z" fill="black"/>
<path opacity="0.1" d="M60.9457 413.458C61.3879 413.458 61.7463 413.099 61.7463 412.657C61.7463 412.214 61.3879 411.855 60.9457 411.855C60.5036 411.855 60.1451 412.214 60.1451 412.657C60.1451 413.099 60.5036 413.458 60.9457 413.458Z" fill="black"/>
<path opacity="0.1" d="M56.8038 404.573C57.2459 404.573 57.6044 404.214 57.6044 403.771C57.6044 403.329 57.2459 402.97 56.8038 402.97C56.3616 402.97 56.0032 403.329 56.0032 403.771C56.0032 404.214 56.3616 404.573 56.8038 404.573Z" fill="black"/>
<path opacity="0.1" d="M71.3535 444.904H46.9963V447.246H71.3535V444.904Z" fill="black"/>
<path d="M74.9507 424.073H43.1268V446.44H74.9507V424.073Z" fill="#D4DFEC"/>
<path opacity="0.1" d="M63.7479 421.002C64.19 421.002 64.5485 420.644 64.5485 420.201C64.5485 419.759 64.19 419.4 63.7479 419.4C63.3057 419.4 62.9473 419.759 62.9473 420.201C62.9473 420.644 63.3057 421.002 63.7479 421.002Z" fill="black"/>
<path opacity="0.1" d="M58.9443 422.004C59.3864 422.004 59.7449 421.645 59.7449 421.203C59.7449 420.76 59.3864 420.401 58.9443 420.401C58.5021 420.401 58.1437 420.76 58.1437 421.203C58.1437 421.645 58.5021 422.004 58.9443 422.004Z" fill="black"/>
<path opacity="0.1" d="M27.7986 34.7512C31.0104 34.7512 33.6141 32.1456 33.6141 28.9315C33.6141 25.7174 31.0104 23.1118 27.7986 23.1118C24.5868 23.1118 21.9832 25.7174 21.9832 28.9315C21.9832 32.1456 24.5868 34.7512 27.7986 34.7512Z" fill="#6C63FF"/>
<path opacity="0.1" d="M586.312 219.818C590.611 219.818 594.096 216.33 594.096 212.028C594.096 207.726 590.611 204.239 586.312 204.239C582.013 204.239 578.529 207.726 578.529 212.028C578.529 216.33 582.013 219.818 586.312 219.818Z" fill="#6C63FF"/>
<path opacity="0.1" d="M601.318 201.023C604.456 201.023 607 198.478 607 195.337C607 192.197 604.456 189.651 601.318 189.651C598.18 189.651 595.636 192.197 595.636 195.337C595.636 198.478 598.18 201.023 601.318 201.023Z" fill="#6C63FF"/>
<path opacity="0.1" d="M37.8062 15.5785C42.105 15.5785 45.5898 12.0911 45.5898 7.78923C45.5898 3.48736 42.105 0 37.8062 0C33.5074 0 30.0226 3.48736 30.0226 7.78923C30.0226 12.0911 33.5074 15.5785 37.8062 15.5785Z" fill="#6C63FF"/>
<path opacity="0.1" d="M7.78362 51.1864C12.0824 51.1864 15.5672 47.699 15.5672 43.3971C15.5672 39.0953 12.0824 35.6079 7.78362 35.6079C3.48484 35.6079 0 39.0953 0 43.3971C0 47.699 3.48484 51.1864 7.78362 51.1864Z" fill="#6C63FF"/>
<defs>
<linearGradient id="paint0_linear" x1="293.07" y1="431.662" x2="293.07" y2="105.906" gradientUnits="userSpaceOnUse">
<stop stop-color="#808080" stop-opacity="0.25"/>
<stop offset="0.54" stop-color="#808080" stop-opacity="0.12"/>
<stop offset="1" stop-color="#808080" stop-opacity="0.1"/>
</linearGradient>
</defs>
</svg>
