<svg width="577" height="390" viewBox="0 0 577 390" fill="none" xmlns="http://www.w3.org/2000/svg">
<path d="M485.001 390C535.811 390 577 386.9 577 383.077C577 379.254 535.811 376.154 485.001 376.154C434.191 376.154 393.002 379.254 393.002 383.077C393.002 386.9 434.191 390 485.001 390Z" fill="#E6E6E6"/>
<path d="M190 190.16C190.032 182.371 183.4 176 175.615 176H103.373C95.7109 176 89.0909 182.266 89.0011 189.931C88.9733 192.11 89.4517 194.265 90.3984 196.227C91.3451 198.189 92.7344 199.905 94.4567 201.238C94.8982 201.567 95.2457 202.006 95.4643 202.512C95.6829 203.018 95.7651 203.572 95.7027 204.119C95.6189 204.74 95.5768 205.366 95.5769 205.993V255.987C95.5769 257.827 95.9392 259.649 96.643 261.35C97.3469 263.05 98.3786 264.594 99.6792 265.896C100.98 267.197 102.524 268.229 104.223 268.933C105.922 269.638 107.744 270 109.583 270H168.947C172.662 270 176.225 268.524 178.851 265.896C181.478 263.268 182.953 259.703 182.953 255.987V205.993C182.954 205.445 182.922 204.897 182.858 204.352C182.801 203.812 182.89 203.268 183.115 202.774C183.34 202.281 183.692 201.857 184.136 201.545C185.944 200.247 187.418 198.538 188.437 196.559C189.456 194.579 189.992 192.387 190 190.16Z" fill="#3F3D56"/>
<path d="M186.922 188.746C186.561 186.031 185.221 183.541 183.153 181.746C181.085 179.951 178.433 178.975 175.695 179H103.306C100.747 178.978 98.2562 179.829 96.2459 181.413C94.2356 182.998 92.8255 185.221 92.2486 187.716C91.7546 190.009 92.0008 192.399 92.9517 194.543C93.9025 196.687 95.5089 198.473 97.5396 199.645C98.1258 199.981 98.5839 200.501 98.8419 201.126C99.0998 201.75 99.143 202.443 98.9646 203.094C98.7077 204.033 98.578 205.002 98.579 205.974V256.026C98.5793 258.584 99.4723 261.061 101.104 263.031C102.735 265 105.003 266.337 107.515 266.812C108.185 266.937 108.865 267 109.547 267H168.979C169.983 267.002 170.982 266.864 171.947 266.591C174.248 265.943 176.274 264.561 177.717 262.654C179.161 260.748 179.942 258.422 179.942 256.031V205.97C179.942 205.059 179.829 204.151 179.604 203.269C179.542 203.024 179.511 202.773 179.51 202.52C179.51 201.967 179.661 201.424 179.946 200.95C180.231 200.476 180.639 200.088 181.127 199.829L181.132 199.824C183.102 198.778 184.709 197.16 185.742 195.183C186.776 193.205 187.187 190.962 186.922 188.746Z" fill="#6C63FF"/>
<path opacity="0.2" d="M180 210.765V206.059H172.04V179H167.358V206.059H142.309V179H137.627V206.059H112.578V179H107.896V206.059H99V210.765H107.896V224.882H99V229.588H107.896V243.706H99V248.412H107.896V266.812C108.563 266.937 109.24 267 109.919 267H112.578V248.412H137.627V267H142.309V248.412H167.358V267H169.086C170.085 267.002 171.079 266.864 172.04 266.591V248.412H180V243.706H172.04V229.588H180V224.882H172.04V210.765H180ZM112.578 210.765H137.627V224.882H112.578V210.765ZM112.578 243.706V229.588H137.627V243.706H112.578ZM167.358 243.706H142.309V229.588H167.358V243.706ZM167.358 224.882H142.309V210.765H167.358V224.882Z" fill="black"/>
<path d="M255 68H238V85H255V68Z" fill="#3F3D56"/>
<path d="M418 76H284V77H418V76Z" fill="#3F3D56"/>
<path d="M255 193H238V210H255V193Z" fill="#3F3D56"/>
<path d="M418 201H284V202H418V201Z" fill="#3F3D56"/>
<path d="M255 317H238V334H255V317Z" fill="#3F3D56"/>
<path d="M418 325H284V327H418V325Z" fill="#3F3D56"/>
<path d="M475.403 103.218L456.195 118.351L415.494 104.053C415.494 104.053 401.656 88.4938 393.83 100.082C391.15 104.051 408.704 111.384 410.36 112.065C414.501 113.769 454.161 135.518 458.047 132.665C461.934 129.811 483.8 115.379 483.8 115.379L475.403 103.218Z" fill="#A0616A"/>
<path d="M540.97 77.4017C522.766 70.602 505.448 67.3849 491.408 77.4017V45.0734C491.408 41.8204 492.049 38.5993 493.294 35.5939C494.54 32.5886 496.365 29.8578 498.666 27.5576C500.967 25.2574 503.699 23.4328 506.706 22.188C509.712 20.9431 512.935 20.3024 516.189 20.3024H516.189C519.443 20.3024 522.666 20.9431 525.672 22.188C528.679 23.4328 531.411 25.2574 533.712 27.5576C536.013 29.8578 537.839 32.5886 539.084 35.5939C540.329 38.5993 540.97 41.8204 540.97 45.0734L540.97 77.4017Z" fill="#2F2E41"/>
<path d="M495.228 148.023L493.74 158.432C493.74 158.432 490.021 169.584 493.74 190.401L433.866 353.594L478.121 366.234L500.062 277.016L530.929 208.988L527.954 286.31L512.335 368.836L558.449 366.977L571.887 225.47C574.06 203.106 570.179 180.57 560.651 160.219C556.923 152.305 552.915 146.069 549.278 145.163C538.367 142.447 495.228 148.023 495.228 148.023Z" fill="#2F2E41"/>
<path d="M439.444 352.479L424.197 368.836C424.197 368.836 394.817 384.077 415.643 385.936C436.469 387.794 443.535 379.616 443.535 379.616C443.535 379.616 469.567 377.757 469.195 374.04C468.824 370.323 466.964 358.055 466.964 358.055L439.444 352.479Z" fill="#2F2E41"/>
<path d="M522.19 356.423V367.947C522.19 367.947 522.562 372.78 522.19 373.895C521.818 375.01 516.24 388.764 534.834 385.79C553.429 382.817 545.991 371.293 545.991 371.293L541.528 354.564L522.19 356.423Z" fill="#2F2E41"/>
<path d="M515.961 67.7279C526.282 67.7279 534.648 59.3647 534.648 49.0481C534.648 38.7315 526.282 30.3683 515.961 30.3683C505.64 30.3683 497.273 38.7315 497.273 49.0481C497.273 59.3647 505.64 67.7279 515.961 67.7279Z" fill="#A0616A"/>
<path d="M528.884 59.3638C528.884 59.3638 526.281 83.8985 528.884 88.3594C531.487 92.8202 502.48 83.8985 502.48 83.8985C502.48 83.8985 508.802 67.1704 506.571 60.479C504.339 53.7877 528.884 59.3638 528.884 59.3638Z" fill="#A0616A"/>
<path d="M543.76 129.994L549.71 146.351L494.298 152.67C494.298 152.67 488.348 151.555 488.348 146.722C488.348 141.89 482.026 124.79 482.026 124.79C482.026 124.79 466.542 112.245 459.104 108.899C456.408 107.687 460.441 108.188 462.71 103.043C463.39 101.497 464.205 99.8647 465.093 98.2105C465.819 96.8537 466.6 95.4782 467.399 94.1214C468.37 92.4671 469.37 90.8389 470.341 89.2888C473.279 84.6012 475.96 80.6607 476.819 79.066C479.422 74.2334 503.897 73.8022 503.897 73.8022C510.895 78.2036 531.115 79.066 531.115 79.066C531.115 79.066 545.024 84.8837 550.818 89.2888C551.238 89.6048 543.76 129.994 543.76 129.994Z" fill="#E6E6E6"/>
<path d="M531.73 26.6237V26.1802L531.202 26.2095C528.206 23.9288 524.73 22.3602 521.037 21.6226C517.344 20.8849 513.532 20.9976 509.889 21.9522C513.381 22.8746 516.628 24.5516 519.401 26.8648L501.488 27.8595L493.928 44.6535H499.045L503.168 37.0962V44.6535H520.473L521.649 38.7756L524.916 44.6535H528.316C528.337 45.0725 528.37 45.4886 528.37 45.9129L525.01 78.2413L540.97 71.5238V45.913C540.973 42.2113 540.144 38.5563 538.545 35.2177C536.946 31.8791 534.617 28.9422 531.73 26.6237Z" fill="#2F2E41"/>
<path d="M556.776 112.151L555.66 141.518L552.685 198.394C552.685 198.394 556.776 222.929 546.363 222.557C535.95 222.185 543.76 193.561 543.76 193.561L540.784 148.581L543.76 116.983L556.776 112.151Z" fill="#A0616A"/>
<path d="M559.751 128.135C559.751 131.481 540.97 130.552 540.97 130.552L531.115 79.066C531.115 79.066 545.024 84.8837 550.818 89.2888C552.182 90.7027 553.297 92.3365 554.117 94.1214C554.559 95.3146 554.98 96.6975 555.378 98.2105C555.772 99.7123 556.14 101.344 556.486 103.043C558.109 111.329 559.199 119.71 559.751 128.135Z" fill="#E6E6E6"/>
<path d="M132 323.863L100.743 320.564C100.984 318.872 100.799 317.145 100.207 315.546C99.6157 313.946 98.6359 312.526 97.3596 311.417C96.0833 310.308 94.552 309.547 92.9089 309.205C91.2658 308.863 89.5645 308.95 87.9638 309.46C86.363 309.97 84.9152 310.885 83.7554 312.12C82.5956 313.355 81.7618 314.869 81.3318 316.521C80.9017 318.174 80.8896 319.91 81.2964 321.569C81.7032 323.227 82.5157 324.753 83.658 326.005C82.4974 327.283 81.6799 328.844 81.2846 330.539C80.8893 332.233 80.9296 334.002 81.4016 335.676C81.8736 337.35 82.7613 338.871 83.9788 340.093C85.1964 341.314 86.7026 342.195 88.3517 342.649C90.0009 343.104 91.7372 343.117 93.3927 342.687C95.0483 342.257 96.567 341.399 97.802 340.196C99.037 338.993 99.9465 337.485 100.443 335.818C100.939 334.152 101.004 332.383 100.633 330.683L132 327.744V323.863Z" fill="#CCCCCC"/>
<path d="M164.389 345.398C176.811 348.421 189.325 339.702 189.973 327.059C189.991 326.708 190 326.355 190 326C190 325.645 189.991 325.292 189.973 324.941C189.325 312.298 176.811 303.579 164.389 306.602L122.248 316.857C121.034 316.856 119.831 317.091 118.709 317.55C117.588 318.009 116.568 318.683 115.709 319.532C114.85 320.381 114.169 321.389 113.704 322.499C113.239 323.609 113 324.799 113 326C113 327.201 113.239 328.391 113.704 329.501C114.169 330.611 114.85 331.619 115.709 332.468C116.568 333.317 117.588 333.991 118.709 334.45C119.831 334.909 121.034 335.144 122.248 335.143L164.389 345.398Z" fill="#6C63FF"/>
<path d="M175 106.566C175 127.24 157.987 144 137 144C116.013 144 99 127.24 99 106.566C99 85.8923 116.013 54 137 54C157.987 54 175 85.8923 175 106.566Z" fill="url(#paint0_linear)"/>
<defs>
<linearGradient id="paint0_linear" x1="137" y1="54" x2="137" y2="144" gradientUnits="userSpaceOnUse">
<stop stop-color="#BEBAFF"/>
<stop offset="1" stop-color="#6C63FF"/>
</linearGradient>
</defs>
</svg>
