<svg width="618" height="387" viewBox="0 0 618 387" fill="none" xmlns="http://www.w3.org/2000/svg">
<g clip-path="url(#clip0)">
<path d="M609.183 156.335C586.506 67.087 508.152 2.66265 416.18 0.0786443C367.558 -1.28744 316.393 14.8526 279.142 71.3327C212.55 172.297 283.234 242.066 332.512 275.219C356.32 291.268 377.772 310.566 396.247 332.554C429.533 372.087 493.567 421.214 569.83 344.24C625.105 288.45 624.288 215.782 609.183 156.335Z" fill="#F2F2F2"/>
<path d="M85.113 223.997C84.502 223.092 83.9014 222.162 83.3276 221.234L84.2544 220.66C84.8204 221.576 85.413 222.494 86.0158 223.387L85.113 223.997Z" fill="#3F3D56"/>
<path d="M80.0426 215.39C79.0321 213.405 78.0929 211.354 77.2513 209.295L78.2594 208.882C79.0901 210.913 80.0166 212.936 81.0135 214.894L80.0426 215.39ZM74.9744 202.989C74.3059 200.867 73.7183 198.689 73.2276 196.517L74.2905 196.277C74.7743 198.419 75.3539 200.567 76.0133 202.661L74.9744 202.989ZM72.0229 189.922C71.714 187.722 71.4927 185.478 71.3645 183.252L72.4524 183.189C72.5785 185.385 72.7972 187.6 73.1017 189.771L72.0229 189.922ZM72.3402 176.575L71.2512 176.549C71.3036 174.32 71.4483 172.07 71.6811 169.862L72.7647 169.976C72.5349 172.155 72.3921 174.375 72.3402 176.575ZM73.7279 163.435L72.6575 163.231C73.0725 161.044 73.584 158.848 74.1779 156.704L75.2281 156.995C74.6418 159.111 74.1373 161.277 73.7279 163.435ZM77.2566 150.702L76.2346 150.324C77.0049 148.236 77.8729 146.153 78.8142 144.133L79.8016 144.595C78.8728 146.587 78.0165 148.641 77.2566 150.702ZM226.468 147.331C225.617 145.31 224.669 143.297 223.651 141.35L224.617 140.844C225.648 142.819 226.609 144.858 227.472 146.907L226.468 147.331ZM82.8422 138.719L81.8963 138.178C82.9997 136.247 84.198 134.336 85.458 132.499L86.356 133.116C85.113 134.929 83.9307 136.814 82.8422 138.719ZM220.35 135.621C219.177 133.766 217.912 131.936 216.589 130.183L217.459 129.526C218.799 131.303 220.082 133.157 221.271 135.037L220.35 135.621ZM90.318 127.821L89.4732 127.132C90.8788 125.406 92.3726 123.718 93.914 122.113L94.6992 122.869C93.1786 124.452 91.7044 126.118 90.318 127.821ZM212.396 125.072C210.934 123.433 209.387 121.834 207.797 120.321L208.548 119.531C210.159 121.065 211.727 122.684 213.208 124.346L212.396 125.072ZM99.4704 118.292L98.7496 117.475C100.417 116.002 102.165 114.58 103.948 113.249L104.599 114.123C102.841 115.436 101.115 116.839 99.4704 118.292ZM202.826 115.962C201.117 114.584 199.33 113.259 197.514 112.026L198.126 111.124C199.966 112.374 201.778 113.716 203.51 115.113L202.826 115.962ZM110.051 110.389L109.473 109.464C111.36 108.283 113.317 107.168 115.291 106.148L115.791 107.117C113.843 108.123 111.912 109.224 110.051 110.389ZM191.898 108.54C189.984 107.459 188.004 106.446 186.013 105.529L186.468 104.538C188.486 105.468 190.493 106.495 192.433 107.59L191.898 108.54ZM121.779 104.331L121.361 103.324C123.414 102.471 125.528 101.693 127.643 101.013L127.976 102.051C125.889 102.722 123.804 103.489 121.779 104.331ZM179.899 103.016C177.837 102.266 175.717 101.594 173.598 101.019L173.883 99.9664C176.031 100.55 178.18 101.231 180.271 101.991L179.899 103.016ZM134.344 100.292L134.098 99.23C136.262 98.7279 138.476 98.3102 140.679 97.9881L140.836 99.0671C138.663 99.385 136.479 99.7971 134.344 100.292V100.292ZM167.153 99.5516C165 99.1544 162.799 98.8419 160.611 98.623L160.72 97.5379C162.937 97.7599 165.168 98.0764 167.351 98.4792L167.153 99.5516ZM147.407 98.3815L147.338 97.2932C149.554 97.1532 151.814 97.1034 154.034 97.1436L154.014 98.2341C151.822 98.1939 149.594 98.2436 147.407 98.3815Z" fill="#3F3D56"/>
<path d="M229.75 156.714C229.458 155.676 229.141 154.63 228.807 153.605L229.843 153.267C230.181 154.306 230.503 155.367 230.798 156.419L229.75 156.714Z" fill="#3F3D56"/>
<path d="M223.106 95.6471H222.017C222.017 94.5559 222.036 93.4486 222.074 92.3565L223.163 92.3943C223.125 93.4742 223.106 94.5684 223.106 95.6471Z" fill="#3F3D56"/>
<path d="M223.625 85.8371L222.541 85.7216C222.774 83.5254 223.09 81.3115 223.48 79.1412L224.552 79.3339C224.167 81.4787 223.855 83.6668 223.625 85.8371ZM225.944 72.9144L224.889 72.6449C225.434 70.5047 226.064 68.3589 226.762 66.2669L227.795 66.6119C227.106 68.6795 226.483 70.7997 225.944 72.9144ZM399.702 61.4096C398.887 59.386 397.989 57.3669 397.031 55.409L398.01 54.9298C398.979 56.9111 399.888 58.9541 400.713 61.0022L399.702 61.4096ZM230.098 60.4538L229.092 60.0348C229.939 57.997 230.872 55.9628 231.865 53.9884L232.838 54.4788C231.857 56.43 230.935 58.44 230.098 60.4538ZM393.936 49.6154C392.841 47.731 391.663 45.8613 390.435 44.0584L391.335 43.4439C392.578 45.2684 393.77 47.1602 394.878 49.0669L393.936 49.6154ZM236.001 48.7174L235.065 48.1583C236.194 46.2649 237.409 44.3858 238.674 42.5736L239.567 43.1982C238.317 44.9891 237.117 46.8461 236.001 48.7174H236.001ZM386.545 38.7657C385.19 37.0542 383.758 35.3713 382.288 33.7638L383.091 33.0274C384.578 34.6541 386.028 36.3567 387.399 38.0885L386.545 38.7657ZM243.518 37.949L242.671 37.2621C244.061 35.5465 245.53 33.8602 247.037 32.2501L247.832 32.9955C246.343 34.587 244.891 36.2536 243.518 37.949ZM377.685 29.078C376.102 27.577 374.445 26.1148 372.761 24.7318L373.451 23.8889C375.156 25.2879 376.832 26.7676 378.434 28.2862L377.685 29.078ZM252.487 28.3629L251.747 27.5626C253.364 26.0634 255.057 24.6032 256.778 23.2228L257.459 24.0737C255.759 25.4381 254.086 26.881 252.487 28.3629V28.3629ZM367.539 20.7479C365.759 19.4876 363.912 18.2763 362.047 17.1474L362.611 16.2146C364.497 17.3567 366.367 18.5824 368.168 19.8577L367.539 20.7479ZM262.723 20.1505L262.104 19.2533C263.918 17.9999 265.8 16.7963 267.699 15.6755L268.252 16.6147C266.376 17.7225 264.515 18.912 262.723 20.1505V20.1505ZM356.311 13.9503C354.369 12.9573 352.367 12.0233 350.36 11.1738L350.785 10.1696C352.815 11.029 354.841 11.9744 356.807 12.9791L356.311 13.9503ZM274.02 13.4852L273.535 12.5087C275.509 11.5279 277.543 10.6065 279.582 9.77027L279.996 10.7793C277.981 11.6056 275.97 12.5161 274.02 13.4852V13.4852ZM344.225 8.83393C342.164 8.13162 340.048 7.49534 337.937 6.94291L338.212 5.88811C340.349 6.44693 342.49 7.09093 344.576 7.8015L344.225 8.83393ZM286.148 8.51127L285.809 7.47511C287.903 6.78823 290.05 6.16872 292.191 5.63384L292.455 6.69184C290.339 7.2203 288.217 7.83236 286.148 8.51124L286.148 8.51127ZM331.53 5.51192C329.388 5.1139 327.203 4.78885 325.037 4.54551L325.159 3.46196C327.351 3.70822 329.561 4.03701 331.729 4.43957L331.53 5.51192ZM298.876 5.33248L298.689 4.25799C300.86 3.87967 303.073 3.57535 305.269 3.35307L305.378 4.43822C303.209 4.65758 301.021 4.95842 298.876 5.33247L298.876 5.33248ZM318.492 4.04553C316.311 3.95688 314.093 3.94517 311.928 4.00986L311.895 2.91993C314.086 2.85444 316.329 2.86589 318.537 2.95614L318.492 4.04553Z" fill="#3F3D56"/>
<path d="M402.889 70.7667C402.598 69.7289 402.283 68.6813 401.954 67.6524L402.991 67.3201C403.324 68.3611 403.643 69.4212 403.938 70.4712L402.889 70.7667Z" fill="#3F3D56"/>
<path d="M84.4759 237.532C94.4983 237.532 102.623 236.922 102.623 236.169C102.623 235.417 94.4983 234.807 84.4759 234.807C74.4534 234.807 66.3286 235.417 66.3286 236.169C66.3286 236.922 74.4534 237.532 84.4759 237.532Z" fill="#6C63FF"/>
<path d="M229.2 171.69C239.223 171.69 247.347 171.08 247.347 170.328C247.347 169.576 239.223 168.966 229.2 168.966C219.178 168.966 211.053 169.576 211.053 170.328C211.053 171.08 219.178 171.69 229.2 171.69Z" fill="#6C63FF"/>
<path d="M407.95 103.124C417.973 103.124 426.098 102.514 426.098 101.762C426.098 101.01 417.973 100.4 407.95 100.4C397.928 100.4 389.803 101.01 389.803 101.762C389.803 102.514 397.928 103.124 407.95 103.124Z" fill="#6C63FF"/>
<path d="M400.76 97.2898L346.192 151.906L346.962 152.677L401.53 98.0608L400.76 97.2898Z" fill="#3F3D56"/>
<path d="M330.371 158.885H238.728V159.975H330.371V158.885Z" fill="#3F3D56"/>
<path d="M222.001 166.319L170.744 217.621L171.514 218.392L222.771 167.09L222.001 166.319Z" fill="#3F3D56"/>
<path d="M155.25 224.726H94.0032V225.817H155.25V224.726Z" fill="#3F3D56"/>
<path d="M77.354 231.629L16.4922 292.544L17.2625 293.315L78.1243 232.4L77.354 231.629Z" fill="#3F3D56"/>
<path d="M84.476 235.353C82.4839 235.353 80.5365 234.761 78.8801 233.654C77.2237 232.546 75.9327 230.972 75.1703 229.13C74.408 227.287 74.2085 225.261 74.5971 223.305C74.9857 221.349 75.9449 219.553 77.3535 218.143C78.7622 216.733 80.5568 215.773 82.5107 215.384C84.4645 214.995 86.4897 215.195 88.3301 215.958C90.1706 216.721 91.7437 218.013 92.8505 219.671C93.9572 221.329 94.5479 223.278 94.5479 225.271C94.5449 227.944 93.4828 230.507 91.5946 232.396C89.7064 234.286 87.1464 235.349 84.476 235.353ZM84.476 216.281C82.6994 216.281 80.9627 216.808 79.4855 217.796C78.0082 218.784 76.8569 220.188 76.1769 221.831C75.497 223.474 75.3191 225.281 75.6657 227.025C76.0122 228.769 76.8677 230.371 78.124 231.629C79.3802 232.886 80.9808 233.742 82.7232 234.089C84.4657 234.436 86.2718 234.258 87.9132 233.578C89.5546 232.897 90.9575 231.745 91.9446 230.266C92.9316 228.788 93.4584 227.05 93.4584 225.271C93.4557 222.888 92.5085 220.603 90.8245 218.917C89.1406 217.232 86.8575 216.284 84.476 216.281Z" fill="#3F3D56"/>
<path d="M164.777 235.353C162.785 235.353 160.838 234.761 159.181 233.654C157.525 232.546 156.234 230.971 155.472 229.129C154.709 227.287 154.51 225.26 154.899 223.305C155.287 221.349 156.247 219.553 157.655 218.143C159.064 216.733 160.858 215.773 162.812 215.384C164.766 214.995 166.791 215.195 168.632 215.958C170.472 216.721 172.045 218.013 173.152 219.671C174.259 221.329 174.849 223.278 174.849 225.271C174.846 227.944 173.784 230.507 171.896 232.397C170.008 234.287 167.448 235.35 164.777 235.353ZM164.777 216.281C163.001 216.281 161.264 216.808 159.787 217.796C158.31 218.784 157.158 220.188 156.478 221.831C155.798 223.474 155.621 225.281 155.967 227.025C156.314 228.769 157.169 230.371 158.426 231.629C159.682 232.886 161.282 233.742 163.025 234.089C164.767 234.436 166.573 234.258 168.215 233.578C169.856 232.897 171.259 231.745 172.246 230.266C173.233 228.788 173.76 227.05 173.76 225.271C173.757 222.888 172.81 220.603 171.126 218.917C169.442 217.232 167.159 216.284 164.777 216.281Z" fill="#3F3D56"/>
<path d="M229.2 169.511C227.208 169.511 225.261 168.92 223.604 167.812C221.948 166.704 220.657 165.13 219.895 163.288C219.133 161.446 218.933 159.419 219.322 157.463C219.71 155.508 220.67 153.712 222.078 152.302C223.487 150.892 225.281 149.932 227.235 149.543C229.189 149.154 231.214 149.354 233.055 150.117C234.895 150.879 236.468 152.172 237.575 153.829C238.682 155.487 239.272 157.436 239.272 159.43C239.269 162.103 238.207 164.665 236.319 166.555C234.431 168.445 231.87 169.508 229.2 169.511ZM229.2 150.44C227.424 150.44 225.687 150.967 224.21 151.955C222.733 152.943 221.581 154.347 220.901 155.99C220.222 157.632 220.044 159.44 220.39 161.184C220.737 162.928 221.592 164.53 222.849 165.787C224.105 167.045 225.706 167.901 227.448 168.248C229.19 168.595 230.996 168.417 232.638 167.736C234.279 167.056 235.682 165.903 236.669 164.425C237.656 162.946 238.183 161.208 238.183 159.43C238.18 157.046 237.233 154.761 235.549 153.076C233.865 151.39 231.582 150.442 229.2 150.44V150.44Z" fill="#3F3D56"/>
<path d="M339.898 169.511C337.906 169.511 335.959 168.92 334.302 167.812C332.646 166.704 331.355 165.13 330.593 163.288C329.831 161.446 329.631 159.419 330.02 157.463C330.408 155.508 331.368 153.712 332.776 152.302C334.185 150.892 335.979 149.932 337.933 149.543C339.887 149.154 341.912 149.354 343.753 150.117C345.593 150.879 347.166 152.172 348.273 153.829C349.379 155.487 349.97 157.436 349.97 159.43C349.967 162.103 348.905 164.665 347.017 166.555C345.129 168.445 342.568 169.508 339.898 169.511ZM339.898 150.44C338.122 150.44 336.385 150.967 334.908 151.955C333.431 152.943 332.279 154.347 331.599 155.99C330.92 157.632 330.742 159.44 331.088 161.184C331.435 162.928 332.29 164.53 333.547 165.787C334.803 167.045 336.404 167.901 338.146 168.248C339.888 168.595 341.694 168.417 343.336 167.736C344.977 167.056 346.38 165.903 347.367 164.425C348.354 162.946 348.881 161.208 348.881 159.43C348.878 157.046 347.931 154.761 346.247 153.076C344.563 151.39 342.28 150.442 339.898 150.44V150.44Z" fill="#3F3D56"/>
<path d="M407.95 100.945C405.958 100.945 404.011 100.354 402.355 99.2461C400.698 98.1383 399.408 96.5639 398.645 94.7219C397.883 92.8799 397.683 90.8529 398.072 88.8975C398.461 86.942 399.42 85.1457 400.829 83.7359C402.237 82.3261 404.032 81.366 405.986 80.977C407.939 80.588 409.965 80.7877 411.805 81.5506C413.645 82.3136 415.218 83.6057 416.325 85.2634C417.432 86.9212 418.023 88.8702 418.023 90.864C418.02 93.5368 416.958 96.0992 415.069 97.9891C413.181 99.879 410.621 100.942 407.95 100.945ZM407.95 81.8738C406.174 81.8738 404.437 82.4011 402.96 83.389C401.483 84.3769 400.332 85.781 399.652 87.4238C398.972 89.0666 398.794 90.8743 399.141 92.6183C399.487 94.3622 400.343 95.9641 401.599 97.2215C402.855 98.4788 404.456 99.335 406.198 99.6819C407.941 100.029 409.747 99.8507 411.388 99.1702C413.03 98.4897 414.432 97.3373 415.419 95.8589C416.406 94.3804 416.933 92.6422 416.933 90.864C416.93 88.4805 415.983 86.1953 414.299 84.5099C412.615 82.8245 410.332 81.8764 407.95 81.8737V81.8738Z" fill="#3F3D56"/>
<path d="M10.0722 309.822C8.08011 309.822 6.13273 309.23 4.47633 308.123C2.81994 307.015 1.52892 305.441 0.766537 303.598C0.00415582 301.756 -0.195346 299.729 0.193262 297.774C0.58187 295.818 1.54113 294.022 2.94974 292.612C4.35835 291.202 6.15305 290.242 8.10687 289.853C10.0607 289.464 12.0859 289.664 13.9263 290.427C15.7668 291.19 17.3399 292.482 18.4466 294.14C19.5534 295.798 20.1441 297.747 20.1441 299.74C20.1411 302.413 19.079 304.976 17.1908 306.865C15.3026 308.755 12.7426 309.818 10.0722 309.822ZM10.0722 290.75C8.2956 290.75 6.55887 291.277 5.08164 292.265C3.60441 293.253 2.45304 294.657 1.77312 296.3C1.0932 297.943 0.915277 299.75 1.26185 301.494C1.60841 303.238 2.46391 304.84 3.72015 306.098C4.97639 307.355 6.57694 308.211 8.31942 308.558C10.0619 308.905 11.868 308.727 13.5094 308.047C15.1508 307.366 16.5537 306.214 17.5407 304.735C18.5278 303.257 19.0546 301.519 19.0546 299.74C19.0519 297.357 18.1047 295.072 16.4207 293.386C14.7368 291.701 12.4537 290.753 10.0722 290.75Z" fill="#3F3D56"/>
<path d="M84.4759 165.787C82.0927 165.787 79.7329 166.257 77.5312 167.17C75.3295 168.082 73.3289 169.42 71.6438 171.107C69.9587 172.794 68.622 174.796 67.71 177C66.798 179.203 66.3286 181.565 66.3286 183.95C66.3286 193.982 84.4759 227.088 84.4759 227.088C84.4759 227.088 102.623 193.982 102.623 183.95C102.623 181.565 102.154 179.203 101.242 177C100.33 174.796 98.993 172.794 97.3079 171.107C95.6228 169.42 93.6222 168.082 91.4205 167.17C89.2188 166.257 86.859 165.787 84.4759 165.787ZM84.4759 193.486C82.5915 193.486 80.7495 192.927 79.1828 191.879C77.616 190.831 76.3949 189.342 75.6738 187.599C74.9527 185.857 74.764 183.94 75.1316 182.09C75.4992 180.24 76.4066 178.541 77.739 177.208C79.0715 175.874 80.7691 174.966 82.6172 174.598C84.4653 174.23 86.3809 174.419 88.1218 175.141C89.8627 175.862 91.3506 177.084 92.3975 178.653C93.4444 180.221 94.0031 182.064 94.0031 183.95C94.0031 186.479 92.9994 188.905 91.2127 190.693C89.426 192.481 87.0027 193.486 84.4759 193.486Z" fill="#6C63FF"/>
<path d="M229.2 97.6753C224.387 97.6753 219.771 99.5889 216.368 102.995C212.965 106.401 211.053 111.021 211.053 115.838C211.053 125.87 229.2 158.976 229.2 158.976C229.2 158.976 247.347 125.87 247.347 115.838C247.347 113.453 246.878 111.091 245.966 108.888C245.054 106.684 243.717 104.682 242.032 102.995C240.347 101.309 238.346 99.9707 236.145 99.0579C233.943 98.1451 231.583 97.6753 229.2 97.6753ZM229.2 125.374C227.316 125.374 225.474 124.815 223.907 123.767C222.34 122.719 221.119 121.23 220.398 119.488C219.677 117.745 219.488 115.828 219.856 113.978C220.223 112.128 221.131 110.429 222.463 109.096C223.796 107.762 225.493 106.854 227.341 106.486C229.189 106.118 231.105 106.307 232.846 107.029C234.587 107.75 236.075 108.973 237.122 110.541C238.169 112.109 238.727 113.953 238.727 115.838C238.727 118.367 237.724 120.793 235.937 122.581C234.15 124.369 231.727 125.374 229.2 125.374Z" fill="#6C63FF"/>
<path d="M585.459 385.668H338.392V387H585.459V385.668Z" fill="#2F2E41"/>
<path d="M542.271 39.4925C538.43 50.8746 532.54 61.2455 520.537 61.2455C508.533 61.2455 499.479 51.4873 498.803 39.4925C497.939 24.1655 508.257 17.6759 520.537 17.7394C535.044 17.8144 546.829 25.9846 542.271 39.4925Z" fill="#2F2E41"/>
<path d="M541.699 37.7751H498.803V92.1578H541.699V37.7751Z" fill="#2F2E41"/>
<path d="M542.958 78.2905H546.607C546.607 78.2905 555.526 89.6516 551.472 105.07C547.418 120.489 550.661 123.329 550.661 123.329C550.661 123.329 555.939 140.026 550.263 165.183C544.588 190.34 555.526 197.176 555.526 197.176L545.391 176.888L539.715 123.329L542.958 78.2905Z" fill="#575A89"/>
<path opacity="0.1" d="M542.958 79.6252H546.607C546.607 79.6252 555.526 90.9863 551.472 106.405C547.418 121.824 550.661 124.664 550.661 124.664C550.661 124.664 555.939 141.361 550.263 166.518C544.588 191.674 555.526 198.511 555.526 198.511L545.391 178.223L539.715 124.664L542.958 79.6252Z" fill="black"/>
<path d="M530.188 58.6114C530.188 58.6114 526.945 71.5955 528.567 71.5955C530.188 71.5955 535.864 78.4933 535.864 78.4933L539.513 91.8832L536.675 101.621L526.945 99.5925L514.783 86.2026L511.135 82.5508L507.892 70.784C507.892 70.784 511.946 65.915 509.108 61.8574C506.27 57.7999 530.188 58.6114 530.188 58.6114Z" fill="#FBBEBE"/>
<path opacity="0.1" d="M530.188 58.6114C530.188 58.6114 526.945 71.5955 528.567 71.5955C530.188 71.5955 535.864 78.4933 535.864 78.4933L539.513 91.8832L536.675 101.621L526.945 99.5925L514.783 86.2026L511.135 82.5508L507.892 70.784C507.892 70.784 511.946 65.915 509.108 61.8574C506.27 57.7999 530.188 58.6114 530.188 58.6114Z" fill="black"/>
<path d="M432.082 94.7235L423.164 80.1163C423.164 80.1163 413.536 58.7963 406.644 66.5056C399.753 74.2149 417.083 89.8544 417.083 89.8544L426.001 101.621L432.082 94.7235Z" fill="#FBBEBE"/>
<path d="M550.458 221.724L543.972 269.197C543.972 269.197 544.783 272.849 536.675 286.239C528.567 299.629 506.675 328.843 506.675 328.843L500.189 316.671C500.189 316.671 507.892 278.124 521.27 270.009L519.648 211.58L550.458 221.724Z" fill="#FBBEBE"/>
<path opacity="0.1" d="M550.458 221.724L543.972 269.197C543.972 269.197 544.783 272.849 536.675 286.239C528.567 299.629 506.675 328.843 506.675 328.843L500.189 316.671C500.189 316.671 507.892 278.124 521.27 270.009L519.648 211.58L550.458 221.724Z" fill="black"/>
<path d="M500.189 311.801L509.108 328.843C509.108 328.843 501.811 349.537 504.648 351.565C507.486 353.594 511.135 371.853 503.432 369.824C495.73 367.795 489.649 359.68 489.649 358.463C489.649 357.246 494.108 340.204 491.676 336.147C489.243 332.089 487.622 330.872 487.622 330.872L481.541 341.016L479.514 339.798L489.649 322.757C489.649 322.757 490.865 319.511 495.73 317.482L500.189 311.801Z" fill="#2F2E41"/>
<path opacity="0.1" d="M500.189 311.801L509.108 328.843C509.108 328.843 501.811 349.537 504.648 351.565C507.486 353.594 511.135 371.853 503.432 369.824C495.73 367.795 489.649 359.68 489.649 358.463C489.649 357.246 494.108 340.204 491.676 336.147C489.243 332.089 487.622 330.872 487.622 330.872L481.541 341.016L479.514 339.798L489.649 322.757C489.649 322.757 490.865 319.511 495.73 317.482L500.189 311.801Z" fill="black"/>
<path d="M519.743 214.989C519.743 214.989 522.891 259.865 515.999 271.632V330.06L506.675 331.278C506.675 331.278 487.845 300.344 494.737 269.913C501.629 239.481 487.622 211.58 487.622 211.58L519.743 214.989Z" fill="#FBBEBE"/>
<path d="M517.419 68.5524C526.822 68.5524 534.445 60.9226 534.445 51.5107C534.445 42.0989 526.822 34.4691 517.419 34.4691C508.015 34.4691 500.392 42.0989 500.392 51.5107C500.392 60.9226 508.015 68.5524 517.419 68.5524Z" fill="#FBBEBE"/>
<path d="M534.648 96.3465L517.621 74.8416L507.892 68.3495L503.838 73.6243L492.487 76.8703C492.487 76.8703 485.189 78.4934 477.487 87.4199C469.784 96.3465 456.001 101.621 456.001 101.621L444.65 99.5925C444.65 99.5925 431.271 93.5062 431.271 91.8832C431.271 90.2602 419.515 102.839 422.353 107.708C425.191 112.577 431.271 118.663 434.515 121.909C437.758 125.155 438.974 134.487 458.839 131.647C478.703 128.807 486 119.069 486 119.069C486 119.069 489.649 137.733 500.189 141.385C510.729 145.037 545.188 147.471 545.188 147.471L552.485 123.126C552.485 123.126 560.593 112.577 549.648 97.158C549.648 97.158 549.438 88.5348 548.261 82.7967C547.803 80.5648 547.199 78.7694 546.404 78.0876C543.567 75.6531 528.567 71.5956 528.567 71.5956C528.567 71.5956 530.999 79.7106 532.216 80.1164C533.432 80.5221 536.27 94.3177 534.648 96.3465Z" fill="#575A89"/>
<path d="M480.122 217.464C500.538 216.044 512.424 219.391 517.727 221.943C518.712 222.39 519.641 222.954 520.491 223.623C520.881 223.952 521.067 224.207 521.067 224.362C521.067 225.579 549.039 228.013 559.174 225.579C569.309 223.144 552.283 170.802 547.823 166.339C543.364 161.876 545.768 145.54 545.768 145.54C545.768 145.54 536.878 143.617 534.445 144.428C532.013 145.24 519.445 143.211 514.986 140.776C510.527 138.342 504.851 139.965 501.203 139.153C499.573 138.792 498.75 139.401 498.34 140.188C497.703 141.369 496.741 142.342 495.568 142.992C486.961 147.954 480.053 182.265 474.852 201.234C469.176 221.927 480.122 217.464 480.122 217.464Z" fill="#2F2E41"/>
<path d="M517.621 326.409L519.243 335.335C519.243 335.335 527.756 347.508 525.324 357.652C525.324 357.652 527.351 371.041 534.648 374.693C541.945 378.345 535.864 386.866 528.972 386.46C522.081 386.054 515.594 386.866 514.783 384.837C513.973 382.808 509.108 362.926 509.108 362.926L507.777 386.192L503.723 386.598L505.054 359.68C505.054 359.68 501.811 353.594 506.27 343.45L505.145 327.88C505.145 327.88 516.405 330.466 517.621 326.409Z" fill="#2F2E41"/>
<path opacity="0.1" d="M517.727 221.943C518.712 222.39 519.641 222.954 520.491 223.623C520.706 219.789 521.947 196.6 520.459 196.973L517.727 221.943Z" fill="black"/>
<path d="M510.37 28.0435C510.37 28.0435 510.181 26.9929 502.807 29.7608C495.432 32.5288 491.011 52.9551 494.698 64.9496C496.184 69.7833 494.976 73.2685 493.003 75.707C485.599 84.8576 488.513 98.6016 499.298 103.307C499.602 103.44 499.913 103.571 500.23 103.701L504.839 106.469C504.839 106.469 498.963 98.731 501.903 88.8326C504.457 80.3987 504.772 71.4447 502.818 62.8519C502.481 61.4023 502.098 59.9081 501.663 58.3833C497.975 45.4661 499.769 46.9579 512.674 34.0407C512.674 34.0407 520.049 39.5767 526.502 42.3446C532.955 45.1126 538.486 47.8805 533.877 57.1071C529.268 66.3336 518.206 74.6375 525.58 86.632C532.955 98.6264 533.877 94.0132 532.955 98.6265L532.033 103.24L537.564 97.7038L533.877 105.085C533.877 105.085 545.861 105.085 549.548 95.8585L551.392 97.7038C551.392 97.7038 558.767 84.7867 544.939 72.7922C544.939 72.7922 540.33 70.0242 546.783 60.7977C553.236 51.5711 548.28 31.7341 539.983 28.0435C531.687 24.3529 510.37 28.0435 510.37 28.0435Z" fill="#2F2E41"/>
<path d="M520.537 22.319C525.275 22.319 529.116 18.4746 529.116 13.7322C529.116 8.98992 525.275 5.14551 520.537 5.14551C515.799 5.14551 511.958 8.98992 511.958 13.7322C511.958 18.4746 515.799 22.319 520.537 22.319Z" fill="#2F2E41"/>
<path d="M510.242 9.15265C510.242 7.02405 511.032 4.97137 512.459 3.39278C513.885 1.81419 515.847 0.82222 517.963 0.60928C517.681 0.581222 517.395 0.565918 517.105 0.565918C514.83 0.565918 512.648 1.47059 511.039 3.08091C509.43 4.69124 508.526 6.87531 508.526 9.15266C508.526 11.43 509.43 13.6141 511.039 15.2244C512.648 16.8347 514.83 17.7394 517.105 17.7394C517.395 17.7394 517.681 17.7241 517.963 17.696C515.847 17.4831 513.885 16.4911 512.459 14.9125C511.032 13.3339 510.242 11.2813 510.242 9.15265Z" fill="#2F2E41"/>
<path d="M407.95 32.288C405.567 32.288 403.208 32.7578 401.006 33.6706C398.804 34.5833 396.804 35.9212 395.118 37.6078C393.433 39.2944 392.097 41.2967 391.185 43.5004C390.273 45.704 389.803 48.0659 389.803 50.4511C389.803 60.4823 407.95 93.5886 407.95 93.5886C407.95 93.5886 426.098 60.4823 426.098 50.4511C426.098 48.0659 425.628 45.704 424.716 43.5004C423.804 41.2967 422.468 39.2944 420.782 37.6078C419.097 35.9212 417.097 34.5833 414.895 33.6706C412.693 32.7578 410.334 32.288 407.95 32.288ZM407.95 59.9868C406.066 59.9868 404.224 59.4275 402.657 58.3797C401.091 57.3319 399.869 55.8427 399.148 54.1003C398.427 52.3579 398.239 50.4406 398.606 48.5908C398.974 46.7411 399.881 45.042 401.214 43.7084C402.546 42.3748 404.244 41.4667 406.092 41.0987C407.94 40.7308 409.855 40.9196 411.596 41.6414C413.337 42.3631 414.825 43.5853 415.872 45.1534C416.919 46.7215 417.478 48.5652 417.478 50.4511C417.478 52.9801 416.474 55.4056 414.687 57.1939C412.901 58.9821 410.477 59.9868 407.95 59.9868Z" fill="#6C63FF"/>
<path d="M261.659 370.242C267.082 370.242 271.478 365.842 271.478 360.414C271.478 354.986 267.082 350.586 261.659 350.586C256.236 350.586 251.839 354.986 251.839 360.414C251.839 365.842 256.236 370.242 261.659 370.242Z" fill="#F1F1F1"/>
<path d="M322.752 328.67C328.175 328.67 332.571 324.27 332.571 318.842C332.571 313.414 328.175 309.014 322.752 309.014C317.328 309.014 312.932 313.414 312.932 318.842C312.932 324.27 317.328 328.67 322.752 328.67Z" fill="#F1F1F1"/>
<path d="M247.2 289.962C252.623 289.962 257.019 285.562 257.019 280.134C257.019 274.706 252.623 270.306 247.2 270.306C241.777 270.306 237.381 274.706 237.381 280.134C237.381 285.562 241.777 289.962 247.2 289.962Z" fill="#F1F1F1"/>
</g>
<defs>
<clipPath id="clip0">
<rect width="618" height="387" fill="white"/>
</clipPath>
</defs>
</svg>
